<?xml version="1.0" encoding="iso-8859-1"?>
<!-- Generator: Adobe Illustrator 19.0.0, SVG Export Plug-In . SVG Version: 6.00 Build 0)  -->
<svg version="1.1" id="Capa_1" xmlns="http://www.w3.org/2000/svg" xmlns:xlink="http://www.w3.org/1999/xlink" x="0px" y="0px"
	 viewBox="0 0 512 512" style="enable-background:new 0 0 512 512;" xml:space="preserve">
<circle style="fill:#6BC1DD;" cx="256" cy="33.02" r="25.52"/>
<g style="opacity:0.15;">
	<path style="fill:#3D0072;" d="M251.961,33.02c0-10.256,6.053-19.094,14.779-23.149C263.475,8.352,259.838,7.5,256,7.5
		c-14.094,0-25.52,11.426-25.52,25.52S241.906,58.54,256,58.54c3.838,0,7.475-0.853,10.74-2.37
		C258.014,52.113,251.961,43.275,251.961,33.02z"/>
</g>
<g>
	<path style="fill:#9EA7AF;" d="M107.413,131h-15.07c-8.25,0-15,6.75-15,15v108.828c0,8.25,6.75,15,15,15h15.07V131z"/>
	<path style="fill:#9EA7AF;" d="M418.665,131h-14.078v138.828h14.078c8.25,0,15-6.75,15-15V146
		C433.665,137.75,426.915,131,418.665,131z"/>
	<path style="fill:#9EA7AF;" d="M98,453c-7.037,0-13.575-2.139-19-5.801V494.5c0,5.5,4.5,10,10,10h28.643V453H98z"/>
	<path style="fill:#9EA7AF;" d="M414,453h-19.643v51.5H423c5.5,0,10-4.5,10-10v-47.301C427.575,450.861,421.037,453,414,453z"/>
</g>
<path style="opacity:0.15;fill:#490089;enable-background:new    ;" d="M100,494.5V453h-2c-7.037,0-13.575-2.139-19-5.801V494.5
	c0,5.5,4.5,10,10,10h21C104.5,504.5,100,500,100,494.5z"/>
<g>
	<path style="fill:#E6E9ED;" d="M117.643,375H98c-18.777,0-34,15.223-34,34v10c0,18.777,15.223,34,34,34h19.643V375z"/>
	<path style="fill:#E6E9ED;" d="M414,375h-19.643v78H414c18.777,0,34-15.223,34-34v-10C448,390.223,432.777,375,414,375z"/>
</g>
<path style="opacity:0.15;fill:#490089;enable-background:new    ;" d="M117.643,452.713C100.925,450.572,88,436.3,88,419v-10
	c0-17.3,12.925-31.572,29.643-33.713V375H98c-18.777,0-34,15.223-34,34v10c0,18.777,15.223,34,34,34h19.643V452.713z"/>
<rect x="222.81" y="309.62" style="fill:#9EA7AF;" width="66.38" height="22.57"/>
<rect x="222.81" y="309.62" style="opacity:0.15;fill:#490089;enable-background:new    ;" width="24.19" height="22.57"/>
<path style="fill:#C5CCD3;" d="M334.092,355.25v-14.435c0-4.743-3.881-8.624-8.623-8.624H183.625c-4.744,0-8.625,3.881-8.625,8.624
	v14.435H334.092z"/>
<path style="opacity:0.15;fill:#490089;enable-background:new    ;" d="M204.908,355.25v-14.435c0-4.743,3.881-8.624,8.625-8.624
	h-29.908c-4.744,0-8.625,3.881-8.625,8.624v14.435H204.908z"/>
<path style="fill:#9EA7AF;" d="M379.357,355.25H132.643c-8.25,0-15,6.75-15,15V504.5h276.715V370.25
	C394.357,362,387.607,355.25,379.357,355.25z"/>
<path style="fill:#C5CCD3;" d="M404.587,294.621c0,8.25-6.75,15-15,15H122.413c-8.25,0-15-6.75-15-15V105.197c0-8.25,6.75-15,15-15
	h267.174c8.25,0,15,6.75,15,15V294.621z"/>
<g style="opacity:0.15;">
	<path style="fill:#3D0072;" d="M136,294.621V105.197c0-8.25,6.75-15,15-15h-28.587c-8.25,0-15,6.75-15,15v189.424
		c0,8.25,6.75,15,15,15H151C142.75,309.621,136,302.871,136,294.621z"/>
</g>
<path style="fill:#046699;" d="M369.091,200.191c0,28.614-23.196,51.809-51.81,51.809h-122.56
	c-28.615,0-51.812-23.194-51.812-51.809l0,0c0-28.614,23.196-51.809,51.812-51.809h122.56
	C345.895,148.383,369.091,171.577,369.091,200.191L369.091,200.191z"/>
<g style="opacity:0.15;">
	<path style="fill:#3D0072;" d="M172,200.191c0-28.614,23.196-51.809,51.811-51.809H194.72c-28.615,0-51.812,23.194-51.812,51.809
		S166.105,252,194.721,252h29.091C195.196,252,172,228.806,172,200.191z"/>
</g>
<g>
	<ellipse style="fill:#6BC1DD;" cx="189.55" cy="200.19" rx="20.15" ry="20.226"/>
	<ellipse style="fill:#6BC1DD;" cx="322.84" cy="200.19" rx="20.15" ry="20.226"/>
</g>
<g style="opacity:0.15;">
	<path style="fill:#3D0072;" d="M161.285,355.25h-28.643c-8.25,0-15,6.75-15,15V504.5h28.643V370.25
		C146.285,362,153.035,355.25,161.285,355.25z"/>
</g>
<path style="fill:#046699;" d="M345.375,504.5v-87.179c0-5.5-4.5-10-10-10h-158.75c-5.5,0-10,4.5-10,10V504.5H345.375z"/>
<path style="fill:#FFC502;" d="M274,504.5v-28.117c0-1.65-1.35-3-3-3h-30c-1.65,0-3,1.35-3,3V504.5H274z"/>
<circle style="fill:#5DC647;" cx="308.82" cy="442.18" r="11.177"/>
<path style="fill:#6BC1DD;" d="M274,450.353c0,1.65-1.35,3-3,3h-30c-1.65,0-3-1.35-3-3V434c0-1.65,1.35-3,3-3h30c1.65,0,3,1.35,3,3
	V450.353z"/>
<path d="M414,367.5h-12.316c-1.361-11.113-10.852-19.75-22.326-19.75h-37.766v-6.935c0-8.891-7.232-16.124-16.123-16.124H296.69
	v-7.57h92.897c12.406,0,22.5-10.094,22.5-22.5v-17.293h6.578c12.406,0,22.5-10.094,22.5-22.5V146c0-12.406-10.094-22.5-22.5-22.5
	h-6.578v-18.303c0-12.406-10.094-22.5-22.5-22.5H355c-4.143,0-7.5,3.357-7.5,7.5c0,4.142,3.357,7.5,7.5,7.5h34.587
	c4.136,0,7.5,3.364,7.5,7.5v189.424c0,4.136-3.364,7.5-7.5,7.5H122.413c-4.136,0-7.5-3.364-7.5-7.5V105.197
	c0-4.136,3.364-7.5,7.5-7.5h190.586c4.143,0,7.5-3.358,7.5-7.5c0-4.143-3.357-7.5-7.5-7.5H263.5V65.17
	c14.604-3.407,25.52-16.523,25.52-32.15C289.02,14.813,274.207,0,256,0s-33.02,14.813-33.02,33.02
	c0,15.627,10.915,28.743,25.52,32.15v17.527H122.413c-12.406,0-22.5,10.094-22.5,22.5V123.5h-7.57c-12.406,0-22.5,10.094-22.5,22.5
	v108.828c0,12.406,10.094,22.5,22.5,22.5h7.57v17.293c0,12.406,10.094,22.5,22.5,22.5h92.896v7.57h-31.685
	c-8.892,0-16.125,7.233-16.125,16.124v6.935h-34.857c-11.475,0-20.965,8.637-22.326,19.75H98c-22.883,0-41.5,18.617-41.5,41.5v10
	c0,12.815,5.842,24.291,15,31.91v43.59c0,9.649,7.851,17.5,17.5,17.5h334c9.649,0,17.5-7.851,17.5-17.5v-43.59
	c9.158-7.619,15-19.095,15-31.91v-10C455.5,386.117,436.883,367.5,414,367.5z M412.087,138.5h6.578c4.136,0,7.5,3.364,7.5,7.5
	v108.828c0,4.136-3.364,7.5-7.5,7.5h-6.578V138.5z M237.98,33.02c0-9.936,8.084-18.02,18.02-18.02c9.935,0,18.02,8.084,18.02,18.02
	S265.936,51.04,256,51.04C246.064,51.039,237.98,42.955,237.98,33.02z M99.913,262.328h-7.57c-4.136,0-7.5-3.364-7.5-7.5V146
	c0-4.136,3.364-7.5,7.5-7.5h7.57V262.328z M110.143,497H89c-1.355,0-2.5-1.145-2.5-2.5v-35.634c3.654,1.056,7.51,1.634,11.5,1.634
	h12.143V497z M110.143,445.5H98c-14.612,0-26.5-11.888-26.5-26.5v-10c0-14.612,11.888-26.5,26.5-26.5h12.143V445.5z M230.31,317.121
	h51.381v7.57H230.31V317.121z M266.5,497h-21v-16.117h21V497z M337.875,497H281.5v-20.617c0-5.79-4.71-10.5-10.5-10.5h-30
	c-5.79,0-10.5,4.71-10.5,10.5V497h-56.375v-79.679c0-1.355,1.145-2.5,2.5-2.5h158.75c1.355,0,2.5,1.145,2.5,2.5V497z M425.5,494.5
	c0,1.355-1.145,2.5-2.5,2.5h-21.143v-36.5H414c3.99,0,7.846-0.578,11.5-1.634V494.5z M440.5,419c0,14.612-11.888,26.5-26.5,26.5
	h-12.143V429c0-4.143-3.357-7.5-7.5-7.5s-7.5,3.357-7.5,7.5v68h-33.982v-79.679c0-9.649-7.851-17.5-17.5-17.5h-158.75
	c-9.649,0-17.5,7.851-17.5,17.5V497h-33.982V370.25c0-4.136,3.364-7.5,7.5-7.5h87.356c4.143,0,7.5-3.357,7.5-7.5s-3.357-7.5-7.5-7.5
	H182.5v-6.935c0-0.599,0.525-1.124,1.125-1.124h141.844c0.599,0,1.123,0.525,1.123,1.124v6.935H264c-4.143,0-7.5,3.357-7.5,7.5
	s3.357,7.5,7.5,7.5h115.357c4.136,0,7.5,3.364,7.5,7.5V390c0,4.143,3.357,7.5,7.5,7.5s7.5-3.357,7.5-7.5v-7.5H414
	c14.612,0,26.5,11.888,26.5,26.5V419z"/>
<path d="M194.721,140.883c-32.704,0-59.312,26.605-59.312,59.309s26.607,59.309,59.312,59.309h122.56
	c32.704,0,59.31-26.605,59.31-59.309s-26.606-59.309-59.31-59.309H194.721z M361.591,200.191c0,24.432-19.878,44.309-44.31,44.309
	h-122.56c-24.434,0-44.312-19.877-44.312-44.309s19.878-44.309,44.312-44.309h122.56
	C341.713,155.883,361.591,175.76,361.591,200.191z"/>
<path d="M189.548,172.466c-15.245,0-27.647,12.438-27.647,27.726s12.402,27.726,27.647,27.726c15.243,0,27.645-12.438,27.645-27.726
	S204.791,172.466,189.548,172.466z M189.548,212.917c-6.974,0-12.647-5.709-12.647-12.726s5.674-12.726,12.647-12.726
	s12.645,5.709,12.645,12.726C202.192,207.208,196.52,212.917,189.548,212.917z"/>
<path d="M295.192,200.191c0,15.288,12.402,27.726,27.647,27.726c15.243,0,27.645-12.438,27.645-27.726s-12.401-27.726-27.645-27.726
	C307.595,172.466,295.192,184.903,295.192,200.191z M322.84,187.466c6.973,0,12.645,5.709,12.645,12.726
	s-5.672,12.726-12.645,12.726c-6.974,0-12.647-5.709-12.647-12.726C310.192,193.175,315.866,187.466,322.84,187.466z"/>
<path d="M214,423.841h-23c-4.143,0-7.5,3.357-7.5,7.5s3.357,7.5,7.5,7.5h23c4.143,0,7.5-3.357,7.5-7.5S218.143,423.841,214,423.841z
	"/>
<path d="M191,456.613h13c4.143,0,7.5-3.357,7.5-7.5s-3.357-7.5-7.5-7.5h-13c-4.143,0-7.5,3.357-7.5,7.5S186.857,456.613,191,456.613
	z"/>
<path d="M214,459.387h-23c-4.143,0-7.5,3.357-7.5,7.5s3.357,7.5,7.5,7.5h23c4.143,0,7.5-3.357,7.5-7.5S218.143,459.387,214,459.387z
	"/>
<path d="M201,477.159h-10c-4.143,0-7.5,3.357-7.5,7.5s3.357,7.5,7.5,7.5h10c4.143,0,7.5-3.357,7.5-7.5
	C208.5,480.517,205.143,477.159,201,477.159z"/>
<path d="M317.297,469.5H300.35c-4.143,0-7.5,3.357-7.5,7.5s3.357,7.5,7.5,7.5h16.947c4.143,0,7.5-3.357,7.5-7.5
	S321.44,469.5,317.297,469.5z"/>
<path d="M308.823,423.5c-10.299,0-18.677,8.378-18.677,18.677s8.378,18.677,18.677,18.677s18.677-8.378,18.677-18.677
	S319.122,423.5,308.823,423.5z M308.823,445.853c-2.027,0-3.677-1.649-3.677-3.677c0-2.027,1.649-3.677,3.677-3.677
	c2.027,0,3.677,1.649,3.677,3.677S310.851,445.853,308.823,445.853z"/>
<path d="M271,423.5h-30c-5.79,0-10.5,4.71-10.5,10.5v16.353c0,5.79,4.71,10.5,10.5,10.5h30c5.79,0,10.5-4.71,10.5-10.5V434
	C281.5,428.21,276.79,423.5,271,423.5z M266.5,445.853h-21V438.5h21V445.853z"/>
<g>
</g>
<g>
</g>
<g>
</g>
<g>
</g>
<g>
</g>
<g>
</g>
<g>
</g>
<g>
</g>
<g>
</g>
<g>
</g>
<g>
</g>
<g>
</g>
<g>
</g>
<g>
</g>
<g>
</g>
</svg>
