<svg id="Layer_1" enable-background="new 0 0 511.995 511.995" height="512" viewBox="0 0 511.995 511.995" width="512" xmlns="http://www.w3.org/2000/svg"><g><g><path d="m255.757 7.663c-54.043 0-97.854 43.811-97.854 97.854v.035 138.018c0 7.165 5.809 12.974 12.974 12.974h169.761c7.165 0 12.973-5.809 12.973-12.974 0-3.811 0-134.378 0-138.018v-.035c-.001-54.043-43.811-97.854-97.854-97.854z" fill="#7b6c79"/><path d="m197.878 243.569v-138.018-.035c0-47.193 33.409-86.58 77.866-95.807-6.453-1.339-13.137-2.046-19.988-2.046-54.043 0-97.854 43.811-97.854 97.854v.035 138.018c0 7.165 5.809 12.974 12.974 12.974h39.975c-7.164-.001-12.973-5.81-12.973-12.975z" fill="#665e68"/><path d="m326.762 134.596-3.031 1.794v48.294l2.992 3.41c18.55 3.554 33.996-9.774 33.996-26.747.001-16.959-15.425-30.277-33.957-26.751z" fill="#fed1a3"/><path d="m347.398 184.684v-46.68c-5.75-3.418-12.921-4.877-20.636-3.409l-3.031 1.794v48.294l2.992 3.41c7.732 1.482 14.92.022 20.68-3.404z" fill="#ffbc85"/><path d="m213.504 274.188v8.08l21.311 30.71-18.083 37.421 41.083 34.619 44.25-33.25-27-34 27-37.5-3.79-6.429c-1.379-1.328-2.22-3.171-2.225-5.17l-.019-24.217-4.219-1.435h-74.247l-1.381 1.833v23.774c0 2.734-1.207 4.438-2.68 5.564z" fill="#fed1a3"/><path d="m257.785 384.992v-141.974h-40.22l-1.381 1.833v23.774c0 2.733-1.207 4.437-2.68 5.562v8.08l21.311 30.71-18.083 37.421z" fill="#ffbc85"/><path d="m277.232 333.995-3.401-2.19h-36.153l-3.946 2.88-17 15.714 21.666 18.786 19.334 6.166 15-3.808 23-21.775z" fill="#eee1dd"/><path d="m322.123 121.364c-8.71-2.647-25.777-9.618-42.217-26.575-2.683-2.767-7.076-2.563-9.535.239-6.56 7.482-19.441 21.115-36.484 34.116v57.226c0 29.97 18.247 55.744 44.209 66.837 28.174-9.042 48.628-35.483 48.628-66.621v-59.014c0-2.857-1.868-5.377-4.601-6.208z" fill="#ffe5c1"/><g><path d="m235.644 186.585v-58.798c-13.244 10.308-29.132 20.368-46.619 26.824-2.548.941-4.24 3.369-4.24 6.085v25.888c0 36.551 28.635 69.958 71.981 69.958 8.586 0 16.812-1.563 24.418-4.406-26.568-9.928-45.54-35.562-45.54-65.551z" fill="#fed1a3"/></g><g fill="#fff5f5"><path d="m213.504 274.188c-1.504 1.149-3.286 1.695-4.347 2.106-.458.178-8.684 3.367-20.197 7.83l-4.175 10.394 9.03 28.25 20.8 29 6.161-2c5.59-3.305 9.862-7.356 13.104-11.546 8.627-11.154 8.465-26.782-.168-37.932z"/><path d="m324.186 284.492c-12.606-4.882-22.078-8.55-23.524-9.11-.911-.353-1.709-.891-2.387-1.543l-20.478 26.451c-8.632 11.15-8.795 26.778-.167 37.932 3.448 4.458 8.052 8.767 14.183 12.178l8.503-.631 14.75-16 11.659-44.5z"/></g><path d="m90.487 342.018 31.578 40.333v109.667l9.839 12.641h248.443l6.385-5.308v-122l33.333-39.333 1.789-9.353c-5.944-6.261-12.917-11.17-20.334-14.223-3.378-1.308-48.542-18.799-77.334-29.95-2.965 18.405-14.021 59.244-54.834 83.545-7.853 4.676-17.646 4.676-25.498 0-41.087-24.464-52.017-65.691-54.893-83.913-28.568 11.075-77.402 30.008-78.202 30.318-6.452 2.655-13.746 7.523-20.271 14.337v13.239z" fill="#7b6c79"/><path d="m110.758 314.442c-6.452 2.655-13.746 7.523-20.271 14.337v13.239l14.854 18.972c6.398-24.56 23.517-45.796 35.286-58.128-16.44 6.374-29.459 11.421-29.869 11.58z" fill="#665e68"/><path d="m131.904 392.393c0-15.991-6.646-31.263-18.347-42.163l-23.07-21.489c-10.365 10.814-18.791 26.552-18.791 46.239v116.669c0 7.185 5.824 13.009 13.009 13.009h47.199z" fill="#938493"/><path d="m71.696 374.98v116.669c0 7.185 5.824 13.009 13.009 13.009h18.095c0-41.136 0-96.738 0-124.641 0-11.526 2.935-22.668 7.373-32.939l-19.686-18.337c-10.365 10.814-18.791 26.552-18.791 46.239z" fill="#7b6c79"/><path d="m380.347 392.393v112.266h47.199c7.185 0 13.009-5.824 13.009-13.009 0-10.749 0-104.015 0-116.669 0-18.023-7.532-34.563-18.699-46.325l-23.162 21.574c-11.701 10.9-18.347 26.172-18.347 42.163z" fill="#938493"/></g><g><path d="m404.247 307.343c-.049-.02-.098-.04-.146-.059-4.128-1.599-98.268-38.057-100.679-38.99l-.003-4.415h37.091c11.289 0 20.473-9.185 20.473-20.474v-61.195c4.577-5.976 7.11-13.324 7.11-21.026 0-7.7-2.534-15.048-7.11-21.023v-34.807c-.001-58.093-47.263-105.354-105.355-105.354s-105.353 47.261-105.353 105.388v138.018c0 11.289 9.185 20.474 20.474 20.474h37.808v4.347c-.434.239-100.171 38.879-100.634 39.058-.049.019-.098.039-.146.059-23.896 9.834-43.708 36.593-43.708 67.474v116.669c0 11.309 9.2 20.509 20.51 20.509h.024 153.896c4.143 0 7.5-3.358 7.5-7.5s-3.357-7.5-7.5-7.5h-99.222v-104.767c0-18.008-7.558-35.376-20.734-47.651l-17.131-15.957c3.546-2.884 7.77-5.626 12.007-7.38.468-.181 69.326-26.877 69.771-27.049 8.096 35.214 28.382 63.292 56.7 80.125 10.505 6.251 23.225 5.922 33.172 0 27.327-16.269 48.209-43.653 56.618-79.77 28.211 10.926 65.359 25.312 68.928 26.695 4.089 1.691 8.186 4.171 12.056 7.307l-17.208 16.029c-13.177 12.274-20.734 29.642-20.734 47.65v30.222c0 4.142 3.357 7.5 7.5 7.5s7.5-3.358 7.5-7.5v-30.222c0-13.86 5.816-27.228 15.959-36.675l17.347-16.158c7.99 10.759 11.902 23.387 11.902 35.43v116.66c0 3.038-2.472 5.509-5.509 5.509h-39.699v-39.543c0-4.142-3.357-7.5-7.5-7.5s-7.5 3.358-7.5 7.5v39.543h-99.222c-4.143 0-7.5 3.358-7.5 7.5s3.357 7.5 7.5 7.5h153.921.001c11.308 0 20.508-9.2 20.508-20.508v-.001-116.66-.009c0-.01-.001-.019-.001-.029-.016-28.204-17.222-56.554-43.682-67.444zm-295.93 48.212c10.143 9.447 15.959 22.814 15.959 36.675v104.766h-39.674c-3.037 0-5.508-2.471-5.508-5.508v-116.662c0-14.405 5.093-26.338 11.912-35.395zm237.665-112.149c0 3.018-2.455 5.474-5.473 5.474h-37.103c0-.12-.001-.633-.001-.752 16.433-12.492 27.48-31.203 30.088-52.138 4.039-.097 8.439-.914 12.488-2.504v49.92zm-82.064 80.736h-16.583c1.263-9.91-1.343-20.241-7.82-28.607l-16.87-21.79c.599-1.606.911-3.364.911-5.282v-11.263c20.191 8.716 44.376 9.106 64.856-.14l.009 11.469c.005 1.573.257 3.095.72 4.528l-17.402 22.479c-6.477 8.365-9.083 18.695-7.821 28.606zm-7.28-75.263c-37.732 0-64.481-29.207-64.481-62.458v-25.184c31.226-11.707 61.129-35.916 83.002-60.608 16.942 17.158 34.481 24.556 43.938 27.526v58.266c0 34.937-27.415 51.669-27.415 51.669-10.369 7.046-22.55 10.789-35.044 10.789zm96.454-87.695c0 10.314-7.985 19.038-18.958 19.769v-39.535c11.053.723 18.958 9.553 18.958 19.766zm-182.343 87.695c-3.019 0-5.474-2.456-5.474-5.474v-138.051c0-49.821 40.532-90.354 90.354-90.354s90.354 40.532 90.354 90.388v23.499c-3.806-1.492-7.956-2.326-11.921-2.485-.465-6.039-4.495-10.739-9.886-12.377-12.918-3.926-26.991-12.219-39.014-24.62-5.721-5.896-15.207-5.584-20.559.516-20.575 23.465-49.109 46.714-78.304 57.493-5.469 2.019-9.143 7.292-9.143 13.121v25.888c0 24.608 11.552 47.622 31.399 62.191v.267h-37.806zm51.069 90.766c-15.281-18.039-21.762-38.194-24.474-50.94.008-.003 13.769-5.339 13.778-5.342l16.532 21.354c6.034 7.795 9.277 22.507-5.836 34.928zm41.825 22.684c-5.151 2.33-11.15 2.036-16.081-.9-.045-.027-.088-.056-.133-.083-5.401-3.227-10.366-6.851-15.061-10.967 3.339-2.874 7.283-7.185 9.721-11.237h27.075c2.692 4.409 6.748 8.809 10.569 11.966-6.79 5.823-13.672 10.127-16.09 11.221zm26.782-21.876c-14.792-11.403-14.078-26.369-6.825-35.736l16.685-21.552 15.242 5.903c-2.782 12.86-9.436 33.267-25.102 51.385z"/></g></g></svg>
