<svg id="Layer_1" enable-background="new 0 0 511.973 511.973" height="512" viewBox="0 0 511.973 511.973" width="512" xmlns="http://www.w3.org/2000/svg"><g><g><path d="m347.124 51.173c-5.917-3.587-13.437-6.284-22.968-7.077-3.473-.289-6.57-2.267-8.188-5.353-7.651-14.597-36.599-53.002-117.296-14.387-79.459 38.023-53.979 94.351-38.576 117.681l2.208 4.065h90.25l34.69-24.75 32.918 20.983 28.142 3.767 4.385-3.767 12.148-48.241c3.903-16.625-3.11-34.068-17.713-42.921z" fill="#7b6c79"/><g><path d="m249.006 24.357c12.926-6.186 24.518-10.387 34.914-13.034-18.277-6.316-45.473-5.999-85.248 13.034-79.459 38.023-53.979 94.351-38.576 117.681l2.208 4.065h50.333l-2.208-4.065c-15.403-23.33-40.882-79.658 38.577-117.681z" fill="#665e68"/></g><path d="m353.952 143.414c-6.144-5.566-15.659-9.442-26.817-7.852h-.038l-3.376 3.29v47l3.376 2.401c18.094 2.819 34.003-10.301 34.003-26.934 0-6.854-2.705-13.112-7.148-17.905z" fill="#ffcebe"/><path d="m343.971 137.35c-4.901-1.859-10.612-2.675-16.835-1.788h-.038l-3.376 3.29v47l3.376 2.401c6.04.941 11.832.099 16.874-2.05v-48.853z" fill="#f5b2a2"/><path d="m185.132 135.562h-.039c-10.959-1.528-20.243 2.518-26.825 7.864-.003.002-.006.004-.008.006-4.433 4.791-7.131 11.041-7.131 17.886 0 16.633 15.909 29.754 34.002 26.935l3.423-1.568v-48.645l-3.422-2.45z" fill="#ffcebe"/><path d="m171.379 161.319c0-6.845 2.698-13.095 7.131-17.886.003-.002.006-.004.008-.006 2.75-2.234 5.977-4.233 9.596-5.701l-2.982-2.135v-.028h-.039c-10.959-1.528-20.243 2.518-26.825 7.864-.003.002-.006.004-.008.006-4.433 4.791-7.131 11.041-7.131 17.886 0 16.633 15.909 29.754 34.002 26.935l3.423-1.568v-.463c-10.088-4.28-17.175-13.807-17.175-24.904z" fill="#f5b2a2"/><path d="m312.426 302.096-1.039.599-43.661 43.661c-7.127 7.127-18.683 7.127-25.811 0l-40.719-40.719-1.923-1.724-2.315 1.799 23.095 194.473 4.93 4.451h62.26l5.143-4.784 24.333-194.241z" fill="#7b6c79"/><path d="m254.268 351.676c-4.485-.135-8.929-1.896-12.352-5.319l-40.719-40.719-1.923-1.724-2.315 1.799 23.095 194.473 4.93 4.451h49.461z" fill="#665e68"/><path d="m327.096 135.562c-16.57-1.405-30.914-14.78-35.444-30.781-.14-.495-.271-.994-.393-1.497-.131-.54-.604-.925-1.161-.925s-1.029.385-1.161.925c-.124.508-.256 1.013-.398 1.515-4.576 16.135-19.109 28.451-35.832 29.731 1-.077-12.614 1.032-15.035 1.032h-16.122v89.372h88.503l1-27.833 12-8.466 4.043-6.317c.001-13.144.001-36.398 0-46.756z" fill="#ffdecf"/><g><path d="m223.984 215.499v-79.937h-38.853v46.757l2.923 6.317 11.75 7.966 4.75 28.333h20.278c-.547-3.068-.848-6.217-.848-9.436z" fill="#ffcebe"/></g><path d="m401.506 314.405c-2.737-1.06-32.911-12.745-59.581-23.074l-6.538 3.521-24.333 198 6.125 11.784h110.355c7.185 0 13.009-5.825 13.009-13.009 0-10.749 0-104.015 0-116.67.001-27.619-17.682-51.763-39.037-60.552z" fill="#da7e4a"/><path d="m202.554 496.352-24-194.5-8.251-10.521-.051-.175-59.529 23.249c-16.69 6.869-39.039 28.481-39.039 60.552v116.67c0 7.185 5.824 13.009 13.009 13.009h110.355z" fill="#da7e4a"/><path d="m101.184 491.627c0-10.546 0-117.815 0-129.708 0-26.158 14.867-45.354 29.406-55.272l-19.867 7.759c-16.69 6.869-39.039 28.481-39.039 60.552v116.67c0 7.185 5.824 13.009 13.009 13.009h29.5c-7.184-.001-13.009-5.826-13.009-13.01z" fill="#cb6c35"/><path d="m314.293 280.63c-7.465-2.891-12.616-4.886-13.652-5.287-2.766-1.069-4.605-3.731-4.613-6.713l-.006-7.775-4.468-3.336h-72.167l-3.23 3.312v7.756c0 2.974-1.43 4.726-3.076 5.843l-15.179 5.928-1.849 3.412 1.849 20.917 3.294 2.953 40.719 40.719c7.127 7.127 18.683 7.127 25.811 0l43.661-43.661 2.906-1.677 2.428-19.333z" fill="#ffcebe"/><path d="m254.77 257.519h-35.383l-3.23 3.312v7.756c0 2.974-1.43 4.726-3.076 5.843l-15.179 5.928-1.849 3.412 1.849 20.917 3.294 2.953 40.719 40.719c3.551 3.551 8.201 5.33 12.854 5.343v-96.183z" fill="#f5b2a2"/><path d="m306.473 202.069v6.756c0 7.655-6.206 13.861-13.861 13.861h-5.352c-4.305 0-8.447-1.645-11.579-4.598s-7.274-4.598-11.579-4.598h-7.989-7.989c-4.305 0-8.447 1.645-11.579 4.598s-7.274 4.598-11.579 4.598h-5.352c-7.655 0-13.861-6.206-13.861-13.861v-6.756c0-4.996-2.689-9.605-7.037-12.065l-13.586-7.684v27.067c0 32.122 26.04 58.163 58.163 58.163h12.82 12.82c32.122 0 58.163-26.04 58.163-58.163 0-8.876 0-18.703 0-27.067l-13.586 7.684c-4.349 2.459-7.037 7.069-7.037 12.065z" fill="#7b6c79"/><path d="m224.48 222.686h-4.864c-7.655 0-13.861-6.206-13.861-13.861v-6.756c0-4.996-2.689-9.605-7.037-12.065l-13.586-7.684v27.067c0 32.123 26.041 58.163 58.163 58.163h12.82 7.436c-20.508-5.746-36.179-23.347-39.071-44.864z" fill="#665e68"/><g fill="#e39b74"><path d="m163.706 379.384c-.42-1.677-.018-3.454 1.084-4.787l9.824-11.893c1.898-2.298 1.595-5.695-.681-7.621l-12.857-10.879c-1.558-1.318-2.247-3.397-1.786-5.384l10.963-47.664c10.338-4.004 20.168-7.901 27.651-10.799l27.081 224.279c-10.168 0-20.193 0-29.935 0z"/><path d="m348.522 379.384c.42-1.677.018-3.454-1.084-4.787l-9.824-11.893c-1.898-2.298-1.595-5.695.681-7.621l12.857-10.879c1.558-1.318 2.247-3.397 1.786-5.384l-11.013-47.489c-10.338-4.004-20.15-7.804-27.633-10.702l-27.049 224.006h29.935z"/></g></g><g><path d="m84.566 511.973h342.841c3.534 0 6.862-.899 9.768-2.479 6.393-3.477 10.742-10.255 10.742-18.031 0-.007-.001-.013-.001-.019v-50.853c0-4.142-3.357-7.5-7.5-7.5s-7.5 3.358-7.5 7.5v50.873c0 2.052-1.13 3.842-2.797 4.79-.802.455-1.726.719-2.711.719h-39.698v-129.839c0-4.142-3.357-7.5-7.5-7.5s-7.5 3.358-7.5 7.5v129.839h-46.049l13.654-54.561c1.006-4.019-1.437-8.091-5.455-9.097-4.012-1.002-8.09 1.437-9.096 5.455l-14.565 58.203h-15.62c1.283-10.629 24.367-201.797 24.878-206.027l14.934 5.783 9.833 42.399-11.898 10.067c-5.383 4.555-6.109 12.684-1.618 18.123l9.161 11.091-6.346 25.361c-1.006 4.019 1.437 8.091 5.455 9.097 4.021 1.005 8.091-1.438 9.096-5.455l6.599-26.369c.994-3.971.031-8.227-2.576-11.385l-8.529-10.325 11.307-9.566c3.721-3.149 5.348-8.055 4.246-12.803l-7.812-33.682 46.287 17.926c17.067 7.061 34.323 27.716 34.323 53.588v30.796c0 4.142 3.357 7.5 7.5 7.5s7.5-3.358 7.5-7.5v-30.778c0-.006.001-.013.001-.019 0-29.149-17.963-56.901-43.684-67.487-.049-.02-.098-.04-.146-.059-10.228-3.96-91.86-35.575-100.687-38.993l-.002-3.253c18.635-11.599 31.072-32.259 31.072-55.778v-13.351c19.3-1.302 34.003-16.648 34.003-34.718 0-7.701-2.693-15.149-7.614-21.221l11.124-44.172c.011-.039.02-.078.029-.117 6.195-26.386-10.176-56.092-47.361-59.186-.951-.079-1.762-.588-2.167-1.361-7.719-14.728-39.704-59.528-127.176-17.67-31.266 14.961-50.4 34.385-56.873 57.73-7.191 25.936 3.168 50.656 12.011 65.619-4.497 5.912-6.944 13.032-6.944 20.378 0 18.108 14.742 33.42 34.002 34.718v13.35c0 23.5 12.417 44.145 31.026 55.749v2.969c-8.028 3.135-87.701 34.252-100.663 39.314-.042.017-.084.034-.126.051-21.039 8.659-43.684 33.471-43.684 67.487v116.669c0 .707.036 1.405.106 2.094 1.049 10.33 9.798 18.416 20.4 18.416zm195.901-15h-48.961l-20.388-168.842 25.366 25.366c10.064 10.064 26.353 10.064 36.417 0l28.308-28.308zm39.002-319.191-9.779 5.53c-6.689 3.783-10.845 10.908-10.845 18.593v6.756c0 1.315-.401 2.539-1.088 3.554-1.144 1.692-3.081 2.807-5.273 2.807h-5.352c-2.401 0-4.687-.908-6.434-2.555-4.542-4.283-10.481-6.641-16.724-6.641h-15.978c-6.242 0-12.181 2.358-16.725 6.641-1.092 1.03-2.394 1.77-3.803 2.181-.845.246-1.729.374-2.63.374h-5.353c-3.507 0-6.36-2.854-6.36-6.361v-6.756c0-7.686-4.155-14.81-10.845-18.593l-9.779-5.53v-34.883c41.246 0 48.581.274 60.22-1.033 11.372-.234 27.596-7.532 37.168-22.485 6.687 10.913 17.526 19.27 29.578 22.332v36.069zm15 3.043v-38.152c10.651 1.004 19.003 7.74 19.003 18.482 0 10.334-8.555 18.511-19.003 19.67zm-156.966.001c-10.472-1.161-19.002-9.359-19.002-19.67 0-10.765 8.339-17.223 19.002-18.416zm-14.539-49.371c-.054.025-.109.05-.163.075-.101.048-.205.093-.305.141-7.267-12.733-15.146-32.534-9.608-52.505 5.263-18.981 21.713-35.201 48.894-48.208 24.506-11.727 43.75-16.051 58.808-16.051 29.986 0 43.365 17.153 48.608 27.155 2.802 5.344 8.113 8.837 14.208 9.345 27.611 2.298 38.17 22.917 34.016 40.752l-9.693 38.489c-6.645-2.767-13.84-3.614-20.752-2.805-13.477-1.469-25.29-13.093-28.555-26.488-.95-3.921-4.425-6.659-8.45-6.659-4.019 0-7.492 2.733-8.45 6.661-3.485 14.294-16.096 24.504-29.511 25.532-.031.016-12.624 1.01-14.465 1.01h-52.086c-8.972-1.135-16.564.789-22.496 3.556zm29.539 77.769v-14.209l2.395 1.354c1.992 1.126 3.229 3.248 3.229 5.537v6.756c0 11.778 9.582 21.361 21.36 21.361h5.353c6.242 0 12.182-2.358 16.723-6.64 1.748-1.648 4.033-2.556 6.435-2.556h15.978c.9 0 1.785.128 2.63.374 1.409.411 2.711 1.151 3.804 2.182 4.543 4.282 10.481 6.64 16.724 6.64h5.352.001c10.306 0 18.931-7.337 20.926-17.061.285-1.389.435-2.827.435-4.3v-6.756c0-2.289 1.237-4.41 3.229-5.537l2.395-1.354v14.209c0 27.69-22.493 50.663-50.663 50.663h-25.64c-28.014-.001-50.666-22.82-50.666-50.663zm23.179 72.028c2.483-.97 6.342-4.325 7.489-9.487 6.332 2.015 13.094 3.121 19.995 3.121h25.64c7.238 0 13.5-1.124 19.967-3.113 1.072 4.698 4.386 8.605 9.032 10.401l8.214 3.181-1.896 15.706-41.829 41.829c-4.201 4.202-11.001 4.202-15.203 0l-38.886-38.886-2.287-18.938zm-39.098 15.477 14.934-5.783c1.094 9.06 23.783 196.953 24.879 206.027h-15.621l-29.669-118.563 9.161-11.091c4.492-5.437 3.766-13.567-1.618-18.123l-11.898-10.067zm-5.727 80.682-.003-.01c.001.002.002.006.003.01zm-91.8-2.617c0-28.91 20.509-47.871 34.333-53.591l46.316-18.089-7.85 33.849c-1.102 4.749.525 9.654 4.247 12.805l11.306 9.565-8.527 10.324c-2.608 3.157-3.572 7.413-2.578 11.385l29.01 115.931h-46.049v-129.839c0-4.142-3.357-7.5-7.5-7.5s-7.5 3.358-7.5 7.5v129.839h-39.699c-2.468 0-4.562-1.631-5.261-3.873-.161-.517-.248-1.067-.248-1.637z"/></g></g></svg>