<svg id="Layer_1" enable-background="new 0 0 511.996 511.996" height="512" viewBox="0 0 511.996 511.996" width="512" xmlns="http://www.w3.org/2000/svg"><g><g><path d="m271.253 305.542h-26.854l-32.459-20.276-15.291 23.359 20.583 188.417 7.763 7.617h62.26l6.81-5.45 21.625-194.5-19.741-23.864z" fill="#665e68"/><path d="m295.566 280.381 2.163-7.134c-1.054-1.264-1.685-2.87-1.689-4.593l-.009-24.321-3.859-4.124h-72.107l-3.895 5.208v23.193c0 2.067-.697 3.534-1.671 4.617l1.734 5.482-4.292 6.557 32.459 20.276h26.854l24.697-24.697z" fill="#fed1a3"/><path d="m254.835 240.208h-34.771l-3.895 5.208v23.193c0 2.067-.697 3.534-1.671 4.617l1.734 5.482-4.292 6.557 32.459 20.276h10.436z" fill="#ffbc85"/><path d="m166.097 77.2 1.706 4.175h172.013l6.339-4.175-8.908-51.488c-1.804-10.43-10.854-18.048-21.439-18.048-13.106 0-106.214 0-119.362 0-10.585 0-19.635 7.618-21.439 18.048z" fill="#7b6c79"/><path d="m219.672 25.712c1.805-10.43 10.854-18.048 21.439-18.048-20.917 0-39.344 0-44.667 0-10.585 0-19.635 7.618-21.439 18.048l-8.908 51.488 1.706 4.175h44.667l-1.706-4.175z" fill="#665e68"/><g fill="#9d5e5e"><path d="m327.426 109.897-2.659 3.811v21.96l25.422 9.54 1.623-1.666v-33.645z"/><path d="m160.44 109.897v28.643l1.626 2.002h24v-28.5l-3.074-2.145z"/></g><path d="m160.44 109.897h191.372l-5.658-32.697h-180.057z" fill="#665e68"/><path d="m166.097 77.2-5.657 32.697h44.666l5.658-32.697z" fill="#544e55"/><path d="m360.84 158.21c-.812-15.872-15.881-27.16-31.515-24.299-.632.116-1.265.23-1.9.343l-3.36 1.788v49.333l3.316 1.676c18.784 2.844 33.495-10.728 33.495-27.396.001-.485-.011-.966-.036-1.445z" fill="#fed1a3"/><path d="m182.473 133.828c-10.477-1.932-21.35 1.913-27.722 10.451-3.241 4.343-5.211 9.601-5.211 15.375 0 16.646 14.679 30.243 33.494 27.396l3.032-3.842v-46.63l-3.074-2.655c-.173-.031-.346-.063-.519-.095z" fill="#fed1a3"/><path d="m344.399 135.474c-4.613-1.879-9.81-2.526-15.073-1.563-.632.116-1.265.23-1.9.343l-3.36 1.788v49.333l3.316 1.676c6.257.947 12.057.065 17.017-2.138z" fill="#ffbc85"/><path d="m169.873 159.654c0-5.774 1.969-11.032 5.211-15.375 2.731-3.659 6.292-6.448 10.29-8.298l-2.382-2.057c-.173-.032-.346-.063-.519-.095-10.477-1.932-21.35 1.913-27.722 10.451-3.241 4.343-5.211 9.601-5.211 15.375 0 16.646 14.679 30.243 33.494 27.396l2.128-2.697c-9.267-4.643-15.289-14.042-15.289-24.7z" fill="#ffbc85"/><path d="m401.517 314.428c-2.737-1.06-32.911-12.745-59.581-23.074l-6.538 7.336-25.667 196.185 7.458 9.784h110.355c7.185 0 13.009-5.825 13.009-13.009 0-10.749 0-104.015 0-116.669.002-27.62-17.681-51.764-39.036-60.553z" fill="#7b6c79"/><path d="m201.732 489.875-27.667-193.667-4.061-4.928-59.27 23.148c-16.69 6.869-39.039 28.481-39.039 60.552v116.669c0 7.185 5.824 13.009 13.009 13.009h110.706z" fill="#7b6c79"/><path d="m101.855 491.649c0-10.546 0-120.25 0-132.143 0-22.697 11.195-40.147 23.655-50.848l-14.775 5.77c-16.69 6.869-39.039 28.481-39.039 60.552v116.669c0 7.185 5.824 13.009 13.009 13.009h30.159c-7.185.001-13.009-5.824-13.009-13.009z" fill="#665e68"/><path d="m229.25 109.897v75.508c0 29.555 17.813 57.114 46.739 68.305 29.671-8.584 51.436-35.978 51.436-68.377 0-8.254 0-49.486 0-75.437h-98.175z" fill="#ffe5c1"/><path d="m230.891 185.334c0-14.152 0-50.275 0-75.437h-47.899v75.437c0 37.205 29.152 71.186 73.247 71.186 8.124 0 15.926-1.386 23.204-3.904-29.947-9.935-48.552-37.571-48.552-67.282z" fill="#fed1a3"/><path d="m269.765 336.613-2.866-2.404h-23.334l-1.079 2.404-17.49 168.046h62.26z" fill="#f27182"/><path d="m269.765 336.613-2.866-2.404h-23.334l-1.079 2.404-17.49 168.046h27.839l17.21-165.356z" fill="#ed5469"/><path d="m271.941 299.5-1.847-.8c-9.701 0-18.235 0-27.936 0l-1.967 1.05-9.3 15.75v2.982l11.595 18.131h27.279l11.595-18.13.83-2.732z" fill="#f27182"/><path d="m239.648 294.082-25.15-20.855c-.427.476-.903.885-1.405 1.226l-15.179 5.928-1.265 1.578 3 25.167 1.6.871 17.514 14.524c3.228 2.677 8.062 1.985 10.408-1.491l11.827-17.516c2.042-3.024 1.458-7.103-1.35-9.432z" fill="#7b6c79"/><path d="m314.304 280.653c-7.467-2.892-12.616-4.886-13.652-5.287-1.167-.451-2.155-1.197-2.924-2.12l-25.125 20.835c-2.808 2.329-3.393 6.408-1.351 9.431l11.827 17.516c2.347 3.476 7.18 4.168 10.408 1.491l17.514-14.524 1.751-1.871 2.938-23.438z" fill="#7b6c79"/><g fill="#938493"><path d="m348.534 379.407c.42-1.677.018-3.454-1.084-4.787l-9.824-11.893c-1.898-2.298-1.595-5.695.681-7.621l12.857-10.879c1.558-1.318 2.247-3.397 1.786-5.384l-11.013-47.489c-10.338-4.004-20.15-7.804-27.633-10.702l-27.049 224.006h29.935z"/><path d="m197.914 280.381-27.909 10.9-10.704 47.563c-.461 1.987.229 4.066 1.786 5.384l12.857 10.879c2.275 1.925 2.579 5.323.681 7.621l-9.824 11.893c-1.101 1.333-1.503 3.11-1.084 4.787l31.693 125.251h29.585z"/></g></g><g><path d="m84.577 511.996h342.841c11.304 0 20.509-9.196 20.509-20.509v-116.67c0-29.15-17.963-56.902-43.683-67.487-.049-.02-.098-.04-.146-.059-4.179-1.618-96.491-37.368-100.687-38.993l-.007-20.267c16.649-12.561 28.152-31.577 30.793-53.291 19.577-.961 34.052-16.662 34.052-35.229 0-8.969-3.392-17.229-9.065-23.499v-18.758h38.329c4.143 0 7.5-3.358 7.5-7.5s-3.357-7.5-7.5-7.5h-39.515l-13.489-77.964c-2.434-14.063-14.559-24.27-28.83-24.27h-119.362c-14.271 0-26.396 10.207-28.83 24.27l-13.489 77.964h-39.515c-4.143 0-7.5 3.358-7.5 7.5s3.357 7.5 7.5 7.5h38.329v17.67c-6.75 6.417-10.899 15.169-10.899 24.587 0 10.242 4.443 19.937 12.19 26.6 6.137 5.279 13.703 8.229 21.854 8.629 2.581 21.436 13.934 41.437 32.584 54.532v18.714c-21.663 8.46-77.546 30.285-100.663 39.313-.042.017-.084.034-.126.051-21.039 8.66-43.684 33.472-43.684 67.487v116.669c.001 11.311 9.202 20.51 20.509 20.51zm139.739-74.642-13.492-111.731 3.024 2.508c4.217 3.498 10.241 4.457 15.538 1.955l5.242 8.196zm43.372-149.208c-1.037.86-1.921 1.837-2.659 2.891h-18.063c-.738-1.054-1.622-2.03-2.659-2.891l-20.957-17.379c.113-.756.191-1.525.191-2.32v-10.93c20.141 8.348 44.229 8.732 64.866-.594l.004 11.589c.002.779.066 1.546.184 2.296zm4.57 30.285-6.727 10.519h-19.066l-6.728-10.519 7.348-10.882.001-.001c.001-.001.001-.003.002-.004.31-.458.581-.931.832-1.41.017-.033.04-.063.057-.096h16.04c.016.032.038.061.055.093.252.481.525.956.836 1.417 4.424 6.549 2.942 4.354 7.35 10.883zm-39.068 178.565 15.929-153.046h13.759l15.93 153.046zm44.178-158.715 5.242-8.196c5.285 2.496 11.31 1.552 15.537-1.955h.001l3.023-2.507-13.491 111.731zm43.098-47.312 14.934 5.784 9.833 42.399-11.898 10.067c-5.384 4.556-6.11 12.686-1.618 18.123l9.161 11.091-7.89 31.53c-1.006 4.019 1.437 8.091 5.455 9.097 4.014 1.004 8.09-1.436 9.096-5.455l8.143-32.538c.994-3.971.031-8.227-2.576-11.385l-8.529-10.325 11.307-9.566c3.721-3.149 5.348-8.055 4.246-12.803l-7.812-33.682 46.289 17.927c17.067 7.063 34.321 27.717 34.321 53.587v116.669c0 3.039-2.472 5.509-5.509 5.509h-39.699v-129.841c0-4.142-3.357-7.5-7.5-7.5s-7.5 3.358-7.5 7.5v129.839h-46.049l12.11-48.392c1.006-4.019-1.437-8.091-5.455-9.096-4.015-1.006-8.09 1.436-9.096 5.455l-13.021 52.034h-15.62c1.091-9.044 23.78-196.95 24.877-206.028zm-14.435-5.591-2.245 18.589-14.869 12.331c-.61-.904.06.087-11.371-16.841l20.64-17.116c4.754 1.84 3.202 1.239 7.845 3.037zm47.218-125.887c0 10.122-7.507 18.932-18.451 20.134v-39.821c.876-.171-.856.174 0 0 9.183 2.132 18.451 9.95 18.451 19.687zm-9.065-33.331c-6.175-2.086-7.864-1.447-9.387-1.136v-7.79h9.387zm-168.82 53.465c-4.316-.473-8.264-2.141-11.48-4.907-4.43-3.81-6.971-9.36-6.971-15.227 0-10.221 9.507-17.683 18.451-19.531.18.036-.277-.055 0 0zm0-54.912c-1.892-.141-5.74.851-7.552 1.415v-8.894h7.552zm-6.143-22.479 3.062-17.697h66.215c4.143 0 7.5-3.358 7.5-7.5s-3.357-7.5-7.5-7.5h-63.62l7.39-42.709c1.185-6.854 7.094-11.828 14.049-11.828h119.362c6.955 0 12.863 4.974 14.049 11.827l7.39 42.709h-63.619c-4.143 0-7.5 3.358-7.5 7.5s3.357 7.5 7.5 7.5h66.214l3.062 17.697c-4.922.001-169.578.001-173.554.001zm21.144 82.937c0-36.616-.001-66.393-.001-67.937h129.434v67.937c0 35.248-28.725 63.686-63.687 63.686-39.006-.001-65.746-30.207-65.746-63.686zm23.174 96.946 20.91 17.34c-10.36 15.342-10.426 15.442-11.371 16.841l-14.869-12.331c-.714-5.911-.465-3.846-2.28-18.878zm-37.221 14.537 15.182-5.929 24.908 206.271h-15.286l-30.002-118.566 9.159-11.089c4.492-5.437 3.766-13.567-1.618-18.123l-11.905-10.073zm-97.249 78.163c0-28.911 20.511-47.873 34.335-53.592l46.058-17.988-7.594 33.748c-1.102 4.749.525 9.654 4.247 12.805l11.306 9.565-8.527 10.324c-2.609 3.157-3.573 7.413-2.573 11.404l29.33 115.912h-46.374v-129.838c0-4.142-3.357-7.5-7.5-7.5s-7.5 3.358-7.5 7.5v129.839h-39.7c-3.037 0-5.509-2.471-5.509-5.509v-116.67z"/></g></g></svg>