<svg id="Layer_1" enable-background="new 0 0 511.939 511.939" height="512" viewBox="0 0 511.939 511.939" width="512" xmlns="http://www.w3.org/2000/svg"><g><g><path d="m174.127 126.451c-9.53 3.965-16.908 12.853-16.908 23.673 0 15.609 13.724 28.358 31.367 25.688l2.2-4.244v-43.75l-13.375-2.5z" fill="#ffbc85"/><path d="m176.719 150.124c0-9.714 5.955-17.859 14.067-22.294v-.012l-13.375-2.5-3.284 1.133c-9.53 3.965-16.908 12.853-16.908 23.673 0 15.609 13.724 28.358 31.367 25.688l1.552-2.993c-8.171-4.497-13.419-13.047-13.419-22.695z" fill="#f5a96c"/><path d="m401.489 314.371c-2.995-1.16-38.83-15.038-66.988-25.943l-24.464 5.722h-116.667l-15.857-5.871-66.807 26.092c-16.69 6.869-39.039 28.481-39.039 60.552v32.376l6.619 5.269h48v86.5l5.589 5.534h248.443l5.718-6.534v-85.75h50.25l4.24-5.019c0-17.357 0-30.887 0-32.376.001-27.619-17.682-51.763-39.037-60.552z" fill="#fff5f5"/><path d="m110.706 314.371c-16.69 6.869-39.039 28.481-39.039 60.552v32.376l6.619 5.269h27.75c0-18.108 0-34.73 0-46.75 0-27.603 13.489-47.493 24.734-59.283z" fill="#eee1dd"/><path d="m269.37 304.068h-27.185l-.986 1.39v83.589c0 2.627 2.13 4.757 4.757 4.757h20.257c2.627 0 4.757-2.13 4.757-4.757v-83.589z" fill="#eee1dd"/><path d="m296.011 268.596-.015-18.758-3.959-2.02h-74.198l-1.698 1.751v18.983c0 2.067-.698 3.535-1.672 4.619l.001-.001.001.001h-.003v3.467l25.944 21.995-2.375 4.935 1.581 1.89h32.958l-.415-6.825 25.539-22.315v-3.129s.001.001.001.001c-1.054-1.263-1.685-2.87-1.69-4.594z" fill="#ffbc85"/><path d="m256.085 247.818h-38.246l-1.698 1.751v18.983c0 2.067-.698 3.535-1.672 4.619l.001-.001.001.001h-.003v3.467l25.944 21.995-2.375 4.935 1.581 1.89h16.467z" fill="#f5a96c"/><path d="m125.508 407.299h-53.84v84.294c0 7.185 5.824 13.009 13.009 13.009h47.199v-90.934c0-3.518-2.851-6.369-6.368-6.369z" fill="#ffbc85"/><path d="m106.037 407.299h-34.369v84.294c0 7.185 5.824 13.009 13.009 13.009h21.36c0-25.483 0-64.445 0-97.303z" fill="#f5a96c"/><path d="m386.687 407.299c-3.517 0-6.368 2.851-6.368 6.368v90.934h47.199c7.185 0 13.009-5.824 13.009-13.009v-84.293z" fill="#ffbc85"/><path d="m304.371 28.379s-21.798-31.367-66.458-17.013c-17.766 5.71-34.775 7.551-48.818 7.696-22.206.23-41.951 18.404-49.369 39.334-11.234 31.7 9.692 65.765 43.072 69.869 1.881.231 3.813.364 5.789.406l3.683 2.396h17.58l81.187-32 25.75 12.75v16.869h17.714l5.2-2.346v-63.159c0-19.428-15.904-35.094-35.33-34.802z" fill="#9d5e5e"/><g><path d="m188.545 49.832c4.574-12.908 13.509-24.834 24.796-32.721-8.685 1.324-16.877 1.875-24.247 1.952-22.206.23-41.951 18.404-49.369 39.334-11.234 31.7 9.692 65.765 43.072 69.869 1.881.231 3.813.364 5.789.406l3.683 2.396h17.58l18.38-7.245c-31.974-7.847-51.009-42.034-39.684-73.991z" fill="#865151"/></g><path d="m324.018 124.431-3.106 1.506v47.881l3.106 1.995c17.613 2.667 31.366-10.059 31.366-25.689 0-15.661-13.806-28.325-31.366-25.693z" fill="#ffbc85"/><path d="m340.412 126.651c-4.746-2.219-10.347-3.127-16.394-2.22l-3.106 1.506v47.881l3.106 1.995c6.055.917 11.653.015 16.394-2.199z" fill="#f5a96c"/><path d="m314.971 104.979-13.891-8.079c-5.587-3.25-12.457-3.415-18.194-.437-15.274 7.928-35.673 18.241-55.954 25.04v67.073c0 10.896 2.193 21.502 6.257 31.242h74.599v-27.75l12.75-8 3.481-8.256v-55.68c-.213-6.351-3.702-12.043-9.048-15.153z" fill="#fed1a3"/><path d="m235.115 219.818c-4.464-9.89-6.885-20.783-6.885-31.996v-66.756c-13.763 4.713-27.523 7.865-39.644 7.606v47.14l5.2 8.756 9 5v30.25z" fill="#ffbc85"/><path d="m304.343 194.652v6.445c0 7.303-5.92 13.223-13.223 13.223h-5.106c-4.107 0-8.058-1.569-11.046-4.386s-6.939-4.386-11.046-4.386h-7.621-7.621c-4.107 0-8.058 1.569-11.046 4.386s-6.939 4.386-11.046 4.386h-5.106c-7.303 0-13.223-5.92-13.223-13.223v-6.445c0-4.766-2.565-9.163-6.713-11.51l-12.961-7.33v25.821c0 30.644 24.842 55.486 55.486 55.486h12.23 12.23c30.644 0 55.486-24.842 55.486-55.486 0-8.468 0-17.842 0-25.821l-12.961 7.33c-4.148 2.347-6.713 6.744-6.713 11.51z" fill="#9d5e5e"/><path d="m244.072 257.119h12.23 12.23c1.007 0 2.008-.03 3.002-.083-.577-.275-1.156-.55-1.718-.832-17.881-8.98-30.996-24.629-37.331-43.004-1.861.733-3.859 1.12-5.895 1.12h-5.106c-7.303 0-13.223-5.92-13.223-13.223v-6.445c0-4.766-2.565-9.163-6.713-11.51l-12.961-7.33v25.821c-.001 30.644 24.841 55.486 55.485 55.486z" fill="#865151"/><g fill="#eee1dd"><path d="m283.052 320.972c2.347 3.476 7.18 4.168 10.408 1.491l41.041-34.034c-17.512-6.782-32.056-12.415-33.877-13.12-1.167-.451-2.155-1.197-2.924-2.12l-25.125 20.835c-2.808 2.329-3.393 6.408-1.351 9.431z"/><path d="m218.735 322.463c3.228 2.677 8.062 1.985 10.408-1.491l11.827-17.516c2.042-3.023 1.458-7.103-1.351-9.431l-25.15-20.855c-.427.476-.903.885-1.405 1.226l-35.552 13.885z"/></g></g><g><path d="m177.385 378.97c-4.143 0-7.5 3.358-7.5 7.5s3.357 7.5 7.5 7.5h17.468c4.143 0 7.5-3.358 7.5-7.5s-3.357-7.5-7.5-7.5z"/><path d="m404.216 307.273c-.049-.02-.098-.04-.146-.059l-100.686-38.993-.012-14.393c16.881-11.311 28.019-30.557 28.019-52.359v-18.071c18.159-1.377 31.366-16.14 31.366-33.439 0-11.095-5.5-21.898-15.684-28.301v-18.676c0-4.142-3.357-7.5-7.5-7.5s-7.5 3.358-7.5 7.5v13.608c-.329-.031-.658-.058-.989-.081-1.264-7.899-6.016-14.411-12.442-18.161-.009-.005-.018-.011-.026-.016h-.001l-13.892-8.079c-7.773-4.521-17.274-4.838-25.419-.61-43.573 22.622-102.711 51.657-128.465 10.02-7.259-11.735-8.779-25.922-4.172-38.924 5.992-16.909 22.474-34.134 42.378-34.34 17.809-.185 34.979-2.895 51.035-8.055 38.535-12.389 57.251 13.098 58.004 14.152 1.403 2.019 3.705 3.22 6.159 3.22.037 0 .075 0 .113-.001 15.245-.229 27.717 12.035 27.717 27.302v4.966c0 4.142 3.357 7.5 7.5 7.5s7.5-3.358 7.5-7.5v-4.966c0-22.472-17.414-40.629-39.192-42.195-15.877-17.856-42.071-26.505-72.391-16.759-14.62 4.699-30.299 7.167-46.602 7.336-24.021.249-47.198 18.478-56.36 44.329-6.135 17.312-4.11 36.202 5.554 51.825 5.242 8.475 12.361 15.345 20.678 20.219-5.786 6.029-9.168 13.879-9.168 22.188 0 17.276 13.181 32.062 31.367 33.438v18.071c0 21.601 10.934 40.692 27.554 52.043v14.395c-14.801 5.781-85.822 33.518-100.662 39.314-.042.016-.084.033-.126.05-21.04 8.659-43.685 33.472-43.685 67.487v116.67c0 11.309 9.2 20.509 20.51 20.509h153.92c4.143 0 7.5-3.358 7.5-7.5s-3.357-7.5-7.5-7.5h-99.222c0-7.634 0-124.943 0-129.839 0-4.142-3.357-7.5-7.5-7.5s-7.5 3.358-7.5 7.5v32.537h-45.208v-24.875c0-28.913 20.512-47.875 34.337-53.593l62.623-24.457 37.82 31.362c5.759 4.779 14.339 4.487 19.752-1.055v61.867c0 6.759 5.499 12.257 12.258 12.257h20.257c6.759 0 12.257-5.499 12.257-12.257v-61.894c5.406 5.564 14.001 5.875 19.776 1.083l37.653-31.223 62.804 24.323c17.068 7.062 34.323 27.716 34.323 53.587v24.876h-45.208v-32.537c0-4.142-3.357-7.5-7.5-7.5s-7.5 3.358-7.5 7.5v129.839h-99.222c-4.143 0-7.5 3.358-7.5 7.5s3.357 7.5 7.5 7.5h153.921c11.309 0 20.509-9.2 20.509-20.509 0-11.582 0-105.13 0-116.67-.001-29.148-17.964-56.9-43.684-67.486zm-56.459-157.313c0 9.154-6.657 17.05-16.348 18.353-.007-5.627-.017-16.26-.019-36.691 9.818 1.34 16.367 9.283 16.367 18.338zm-166.817 18.353c-9.703-1.302-16.349-9.205-16.349-18.353 0-6.358 3.903-12.316 10.121-15.71 1.002.245 4.116.902 6.245 1.193-.002 17.954-.011 27.601-.017 32.87zm-56.692 246.323v82.303h-39.699c-3.038 0-5.51-2.471-5.51-5.509v-76.794zm71.711-278.821c25.28-1.819 54.579-14.941 77.693-26.46 0 0 5.13-2.541 12.489-6.361.024-.012.048-.025.072-.037 3.375-1.748 7.506-1.75 10.968.264l13.891 8.079c3.265 1.899 5.219 5.399 5.318 8.973v51.002l-9.153 5.177c-6.49 3.67-10.521 10.582-10.521 18.038v6.445c0 3.155-2.567 5.723-5.723 5.723h-5.105c-2.203 0-4.299-.832-5.901-2.344-4.397-4.146-10.147-6.429-16.19-6.429h-15.242c-6.043 0-11.793 2.283-16.19 6.429-1.604 1.511-3.699 2.343-5.901 2.343h-5.105c-3.155 0-5.723-2.567-5.723-5.723v-6.445c0-7.455-4.031-14.367-10.521-18.038l-9.153-5.177v-35.459zm0 65.655v-12.963l1.769 1c1.793 1.014 2.906 2.923 2.906 4.982v6.445c0 11.427 9.296 20.723 20.723 20.723h5.105c6.043 0 11.794-2.283 16.19-6.429 1.604-1.511 3.699-2.344 5.901-2.344h15.242c2.202 0 4.298.833 5.9 2.342 4.396 4.146 10.146 6.43 16.191 6.43h5.105c11.427 0 20.723-9.296 20.723-20.723v-6.445c0-2.059 1.113-3.968 2.906-4.981l1.769-1v12.963c0 26.536-21.637 47.986-47.986 47.986h-24.459c-26.525-.001-47.985-21.612-47.985-47.986zm27.091 114.771-31.076-25.77 21.535-8.411 20.912 17.34c-.545.808-10.931 16.191-11.371 16.841zm40.292 69.9h-14.771v-73.346h14.771zm4.317-98.052c-3.013 2.499-4.842 6.142-5.215 9.707h-12.949c-.368-3.58-2.192-7.2-5.216-9.707l-20.939-17.364c.067-.437.173-1.56.173-2.336v-7.341c6.424 2.202 13.547 3.408 20.433 3.408h24.459c6.703 0 13.696-1.15 19.974-3.254l.006 7.253c0 .01.001.019.001.029.004.769.066 1.527.183 2.268zm21.229 28.152c-.439-.651-10.825-16.033-11.371-16.841l20.643-17.116c21.381 8.28 15.777 6.11 21.593 8.362zm144.011 175.189c0 3.038-2.472 5.509-5.509 5.509h-39.699v-82.303h45.208z"/></g></g></svg>