<svg id="Layer_1" enable-background="new 0 0 512.118 512.118" height="512" viewBox="0 0 512.118 512.118" width="512" xmlns="http://www.w3.org/2000/svg"><g><g><path d="m400.5 220.054c0-12.423-5.021-23.669-13.143-31.83-4.729-4.752-6.985-11.416-6.566-18.108.046-.735.069-1.477.069-2.224 0-12.357-6.346-23.232-15.956-29.545-6.484-4.259-10.58-11.318-10.58-19.076v-12.115c0-54.116-43.287-98.97-97.401-99.369-54.54-.401-98.873 43.689-98.873 98.135v13.349c0 7.758-4.096 14.817-10.58 19.076-9.61 6.313-15.956 17.188-15.956 29.545 0 .747.023 1.489.069 2.224.419 6.692-1.836 13.355-6.566 18.108-8.122 8.16-13.143 19.406-13.143 31.83 0 12.501 5.084 23.81 13.296 31.983 4.636 4.614 6.94 10.966 6.446 17.487-.161 2.125-.134 4.301.101 6.516 1.081 10.188 6.591 19.068 14.489 24.783l5.725 5.531h205.197l9.029-5.522c7.905-5.714 13.42-14.6 14.501-24.792.235-2.214.263-4.391.102-6.516-.495-6.521 1.81-12.874 6.445-17.487 8.21-8.173 13.295-19.482 13.295-31.983z" fill="#9d5e5e"/><path d="m179.444 276.04c-.235-2.214-.263-4.391-.101-6.516.495-6.521-1.81-12.874-6.446-17.487-8.211-8.173-13.296-19.482-13.296-31.983 0-12.423 5.021-23.669 13.143-31.83 4.73-4.752 6.985-11.416 6.566-18.108-.046-.735-.069-1.477-.069-2.224 0-12.357 6.346-23.232 15.956-29.545 6.484-4.259 10.58-11.318 10.58-19.076v-13.349c0-45.933 31.554-84.495 74.17-95.19-7.374-1.863-15.081-2.886-23.024-2.944-54.54-.401-98.873 43.689-98.873 98.135v13.349c0 7.758-4.096 14.817-10.58 19.076-9.61 6.313-15.956 17.188-15.956 29.545 0 .747.023 1.489.069 2.224.419 6.692-1.836 13.355-6.566 18.108-8.122 8.16-13.143 19.406-13.143 31.83 0 12.501 5.084 23.81 13.296 31.983 4.636 4.614 6.94 10.966 6.446 17.487-.161 2.125-.134 4.301.101 6.516 1.081 10.188 6.591 19.068 14.489 24.783l5.725 5.531h47.727l-5.725-5.531c-7.899-5.716-13.408-14.597-14.489-24.784z" fill="#865151"/><path d="m324.325 284.632c-.4-.155-.788-.306-1.182-.458l-8.349 3.68-61 50.667-58.833-52.5-6.304-1.656c-.23.089-.452.175-.685.266l-2.962 4.723 38.367 205 8.726 10.427h48.092l4.182-4.677 44.75-209.417z" fill="#fff5f5"/><path d="m249.872 342.958v-7.936l-54.912-49.001-6.304-1.656c-.23.089-.452.175-.685.266l-2.962 4.723 38.367 205 8.726 10.427h48.092l2.952-3.301z" fill="#eee1dd"/><path d="m300.714 275.489c-2.766-1.069-4.605-3.731-4.613-6.713l-.019-23.473-10.455-1.698h-64.448l-4.948 1.845v23.283c0 5.524-4.927 6.854-7.028 7.669-.487.188-7.896 3.061-20.546 7.965l49.074 51.637c9.274 9.274 24.31 9.274 33.584 0l51.827-51.828c-12.058-4.671-21.025-8.144-22.428-8.687z" fill="#fed1a3"/><path d="m249.872 342.495v-98.891h-28.694l-4.948 1.845v23.283c0 5.524-4.927 6.854-7.028 7.669-.487.188-7.896 3.061-20.546 7.965l49.074 51.637c3.449 3.447 7.694 5.608 12.142 6.492z" fill="#ffbc85"/><path d="m187.972 284.631c-28.698 11.126-76.384 29.613-77.176 29.92-16.69 6.869-39.039 28.481-39.039 60.552v116.669c0 7.185 5.825 13.009 13.009 13.009h147.336z" fill="#da7e4a"/><path d="m324.325 284.632-44.131 220.148h147.413c7.185 0 13.009-5.824 13.009-13.009 0-10.749 0-104.015 0-116.669 0-27.619-17.683-51.763-39.038-60.552-3.374-1.306-48.454-18.765-77.253-29.918z" fill="#da7e4a"/><path d="m315.708 126.106c-10.186-10.097-24.509-28.255-35.243-52.213-2.725-6.082-9.125-3.641-9.908 1.283-1.236 7.764-7.563 33.995-38.371 59.248v51.727c0 30.417 18.784 56.963 45.319 68.115 28.781-8.923 49.855-36.178 49.855-67.766v-32.142c0-10.586-4.133-20.799-11.652-28.252z" fill="#ffe5c1"/><path d="m234.078 186.5v-53.655c-7.657 6.498-16.899 12.958-28.066 19.05-12.926 7.051-21.002 20.571-21.002 35.295 0 36.577 28.593 70.015 71.905 70.16 8.344.028 16.359-1.453 23.804-4.169-27.122-9.896-46.641-36.282-46.641-66.681z" fill="#fed1a3"/><path d="m104.46 374.991c0-30.594 15.144-54.257 28.014-68.844-12.382 4.8-21.339 8.273-21.678 8.404-16.69 6.869-39.039 28.481-39.039 60.552v116.669c0 7.185 5.825 13.009 13.009 13.009h19.694c0-37.22 0-95.547 0-129.79z" fill="#cb6c35"/></g><g><path d="m404.305 307.452c-.048-.02-.097-.04-.146-.058l-.379-.147c-2.373-.919-11.918-4.616-24.26-9.395 6.158-8.098 9.407-18.24 8.588-29.059-.33-4.353 1.222-8.582 4.258-11.604 20.786-20.688 20.534-53.964.179-74.419-5.395-5.42-4.313-12.124-4.313-15.042 0-14.471-7.229-27.859-19.34-35.813-4.507-2.96-7.197-7.749-7.197-12.808 0-14.664 1.088-32.651-9.345-55.98-1.692-3.781-6.125-5.475-9.909-3.784-3.78 1.691-5.475 6.127-3.784 9.908 8.954 20.018 8.038 35.049 8.038 49.856 0 10.127 5.22 19.602 13.963 25.345 7.873 5.172 12.574 13.874 12.574 23.276 0 2.148-1.72 15.172 8.68 25.623 14.596 14.665 14.692 38.457-.128 53.206-6.149 6.12-9.296 14.639-8.633 23.371.649 8.565-2.617 16.518-8.513 22.16-26.611-10.306-57.443-22.246-61.166-23.688l-.016-19.418c18.978-14.363 31.275-37.182 31.275-62.646v-32.142c0-12.602-5.056-24.84-13.871-33.579h-.001c-6.109-6.056-21.622-23.046-33.678-49.952-5.722-12.773-22.19-9.214-24.16 3.17-3.275 20.596-21.403 49.859-60.73 71.314-15.365 8.382-24.91 24.429-24.91 41.879 0 .035.002.071.002.106.033 24.581 11.603 47.553 31.217 62.055l.001.001v19.155c-.579.31-1.62.66-2.232.898s-58.762 22.781-58.901 22.835c-5.894-5.644-9.153-13.596-8.503-22.148.663-8.732-2.483-17.251-8.633-23.371-14.832-14.764-14.717-38.55-.127-53.207 6.115-6.146 9.299-14.845 8.734-23.866-.617-9.934 4.045-19.468 12.519-25.033 8.743-5.743 13.963-15.217 13.963-25.345v-13.349c0-80.218 98.02-121.781 155.008-63.347 2.891 2.965 7.64 3.024 10.605.133 2.966-2.892 3.025-7.641.133-10.606-66.428-68.12-180.746-19.693-180.746 73.82v13.349c0 5.059-2.69 9.847-7.197 12.808-12.109 7.954-19.339 21.342-19.339 35.813 0 2.817 1.127 9.576-4.312 15.041-20.369 20.464-20.596 53.741.177 74.419 3.036 3.021 4.588 7.251 4.258 11.604-.817 10.762 2.402 20.918 8.584 29.051-5.058 1.961-19.609 7.602-24.634 9.55-.048.019-.096.038-.144.058-21.04 8.659-43.685 33.471-43.685 67.487v116.669c0 11.309 9.2 20.509 20.509 20.509h342.841c11.309 0 20.509-9.2 20.509-20.509v-116.666c0-29.15-17.963-56.902-43.683-67.488zm-180.703-38.884v-10.708c20.236 8.833 44.204 9.384 64.861.054l.009 10.72c.018 6.167 3.774 11.508 9.406 13.686l2.097.812 9.596 3.716-43.688 43.688c-6.349 6.35-16.626 6.35-22.977 0l-42.785-42.784c14.237-5.519 23.481-7.642 23.481-19.184zm-31.218-81.432c0-.036-.002-.072-.002-.109 0-11.951 6.543-22.955 17.093-28.711 30.385-16.574 58.026-42.393 66.898-75.379 9.548 19.459 22.148 36.657 33.927 48.333 5.994 5.941 9.432 14.297 9.432 22.925v32.142c0 34.795-28.46 63.346-62.707 63.351-.052 0-.216 0-.216 0-38.225-.133-64.361-29.882-64.425-62.552zm-53.046 309.982v-129.839c0-4.142-3.357-7.5-7.5-7.5s-7.5 3.358-7.5 7.5v129.839h-39.7c-3.037 0-5.509-2.471-5.509-5.509v-116.669c0-25.856 17.614-46.67 34.325-53.588 6.409-2.485 62.363-24.178 68.788-26.668l40.58 202.434zm293.65-5.509c0 3.038-2.472 5.509-5.509 5.509h-39.698v-129.839c0-4.142-3.357-7.5-7.5-7.5s-7.5 3.358-7.5 7.5v129.839h-83.561l16.617-82.895c.814-4.062-1.818-8.014-5.879-8.828-4.064-.815-8.015 1.819-8.828 5.879l-17.208 85.843h-35.801l-37.646-187.801 31.826 31.825c12.212 12.213 31.976 12.213 44.19 0l35.891-35.891-14.237 71.023c-.814 4.062 1.818 8.014 5.88 8.828 4.064.82 8.014-1.818 8.827-5.879l16.947-84.541 68.868 26.671c17.066 7.063 34.32 27.717 34.32 53.587v116.67z"/></g></g></svg>