<svg id="Layer_1" enable-background="new 0 0 511.996 511.996" height="512" viewBox="0 0 511.996 511.996" width="512" xmlns="http://www.w3.org/2000/svg"><g><g><path d="m346.409 185.985 7.789-42.62c0-15.437 0-32.087 0-37.594 0-54.184-43.922-98.108-98.11-98.108-54.186 0-98.106 43.924-98.106 98.108v37.59l7.785 42.624c-.532 61.72-47.341 73.06-44.799 124.477l3.882 4.604h259.549l6.809-4.629c2.527-51.397-44.267-62.717-44.799-124.452z" fill="#bd7b62"/><path d="m209.179 185.985-7.785-42.624c0-17.692 0-37.265 0-37.59 0-46.724 32.662-85.815 76.4-95.694-6.983-1.577-14.247-2.414-21.706-2.414-54.186 0-98.106 43.924-98.106 98.108v37.59l7.785 42.624c-.532 61.72-47.341 73.06-44.799 124.477l3.882 4.604h43.412l-3.882-4.604c-2.542-51.417 44.267-62.757 44.799-124.477z" fill="#ad6a50"/><path d="m327.28 134.891-2.798 3.758v48l2.76 1.88c18.598 3.564 34.084-9.8 34.084-26.817.001-17.003-15.466-30.356-34.046-26.821z" fill="#ffbc85"/><path d="m346.189 137.327c-5.435-2.715-11.953-3.759-18.908-2.436l-2.798 3.758v48l2.76 1.88c6.97 1.335 13.502.293 18.947-2.427v-48.775z" fill="#f5a96c"/><path d="m150.85 161.712c0 17.017 15.487 30.38 34.085 26.817l3.131-3.046v-47.671l-3.17-2.921c-18.58-3.535-34.046 9.818-34.046 26.821z" fill="#ffbc85"/><path d="m172.556 161.712c0-10.599 6.011-19.778 15.039-24.334l-2.699-2.487c-18.58-3.535-34.046 9.817-34.046 26.821 0 17.017 15.487 30.38 34.085 26.817l2.588-2.518c-8.987-4.569-14.967-13.727-14.967-24.299z" fill="#f5a96c"/><path d="m401.518 314.429c-2.63-1.019-30.587-11.846-56.43-21.854l-8.091 3.033-18.016 5.628-62.855 82.164-58.934-78.429-15.626-6.738-14.415-5.675c-26.477 10.265-55.796 21.632-56.415 21.872-16.69 6.868-39.039 28.481-39.039 60.551v116.669c0 7.185 5.824 13.009 13.009 13.009h342.841c7.185 0 13.009-5.825 13.009-13.009 0-10.749 0-104.015 0-116.669-.001-27.62-17.684-51.763-39.038-60.552z" fill="#7b6c79"/><path d="m256.126 383.399 62.855-82.163-15.462 4.83h-103.786l-2.541-1.095z" fill="#eee1dd"/><path d="m336.997 289.441h-2.264l-42 33.958-6.257 3.301-27.039 37.731c-1.627 2.27-5.002 2.27-6.629 0l-27.034-37.728-8.208-5.72-38.5-31.56h-3.83c-2.642 1.024-5.347 2.073-8.086 3.135l64.666 90.247c11.927 16.646 36.68 16.646 48.609.001l64.663-90.232c-2.732-1.057-5.439-2.105-8.091-3.133z" fill="#938493"/><path d="m299.497 274.782c.001 0 .002.001.003.001-2.108-1.289-3.453-3.588-3.46-6.13l-.02-23.574-3.329-2.597h-73.449l-3.073 2.789v23.338c0 3.22-1.675 5.01-3.489 6.108-.761-.629 1.385 4.39 1.385 4.39l26 21.86-.75 5.265.444 2.118 32.734-.003 3.073-4.615-.5-5 24.434-20.25z" fill="#ffbc85"/><path d="m256.126 242.483h-36.884l-3.073 2.789v23.338c0 3.22-1.675 5.01-3.489 6.108-.761-.629 1.385 4.39 1.385 4.39l26 21.86-.75 5.265.444 2.118 16.366-.002v-65.866z" fill="#f5a96c"/><path d="m297.147 134.891c-22.675 0-41.057-18.382-41.057-41.057 0 19.173-13.143 35.273-30.91 39.791v53.201c0 30.144 19.006 58.173 49.559 68.01 30.125-8.023 52.503-35.967 52.503-68.511v-51.434z" fill="#fed1a3"/><path d="m226.346 187.015v-53.715c-3.595 1.029-7.387 1.591-11.313 1.591h-30.099v52.124c0 36.566 28.584 69.994 71.884 70.139 7.012.023 13.789-1.027 20.193-2.971-31.166-8.945-50.665-36.977-50.665-67.168z" fill="#ffbc85"/><path d="m283.082 324.029c2.347 3.476 7.18 4.168 10.408 1.491l43.507-36.078c-18.596-7.202-34.438-13.337-36.344-14.075-.409-.158-.79-.36-1.156-.584l-26.891 22.3c-2.808 2.329-3.393 6.408-1.351 9.431z" fill="#fff5f5"/><path d="m175.236 289.423 43.529 36.097c3.228 2.678 8.062 1.985 10.408-1.491l11.827-17.516c2.042-3.023 1.458-7.102-1.351-9.431l-26.968-22.364c-1.297.786-2.664 1.221-3.54 1.56-.625.242-15.719 6.094-33.905 13.145z" fill="#fff5f5"/><path d="m102.566 370.233c0-27.176 15.16-49.595 27.372-63.248-11.081 4.296-18.886 7.322-19.203 7.445-16.69 6.868-39.039 28.481-39.039 60.551v116.669c0 7.185 5.824 13.009 13.009 13.009h17.86c.001-38.75.001-103.639.001-134.426z" fill="#665e68"/></g><g><path d="m84.578 511.996h342.841c11.309 0 20.509-9.201 20.509-20.51v-50.48c0-4.142-3.357-7.5-7.5-7.5s-7.5 3.358-7.5 7.5v50.48c0 3.038-2.472 5.51-5.509 5.51h-39.699v-129.839c0-4.142-3.357-7.5-7.5-7.5s-7.5 3.358-7.5 7.5v129.839h-233.443v-129.839c0-4.142-3.357-7.5-7.5-7.5s-7.5 3.358-7.5 7.5v129.839h-39.699c-3.037 0-5.509-2.472-5.509-5.51v-116.669c0-28.908 20.502-47.866 34.326-53.588 1.635-.634 26.568-10.301 50.918-19.741l61.279 85.521c14.918 20.819 45.866 20.843 60.803.002l11.186-15.608c2.412-3.367 1.639-8.052-1.728-10.465-3.367-2.412-8.053-1.64-10.466 1.728l-11.185 15.608c-8.95 12.488-27.472 12.483-36.417-.001l-48.196-67.263 24.262 20.119c2.359 1.956 5.337 3.094 8.231 3.312l24.501 34.193c4.619 6.45 14.208 6.441 18.823.003l24.505-34.195c2.879-.214 5.857-1.337 8.24-3.313l24.245-20.105-16.619 23.189c-2.412 3.367-1.639 8.052 1.728 10.465 3.366 2.413 8.053 1.64 10.466-1.728l29.702-41.447c4.463 1.728 44.477 17.225 50.934 19.725 17.067 7.061 34.322 27.715 34.322 53.587v31.189c0 4.142 3.357 7.5 7.5 7.5s7.5-3.358 7.5-7.5v-31.189c0-29.15-17.963-56.902-43.683-67.487-.049-.02-.097-.04-.146-.058l-5.433-2.104c-.334-24.425-11.214-40.547-21.763-56.168-10.695-15.836-21.727-32.193-22.997-59.038 16.349-11.455 19.509-34.026 7.664-49.485v-34.869c-.001-58.231-47.377-105.606-105.611-105.606-58.231 0-105.606 47.375-105.606 105.608v34.864c-11.835 15.441-8.709 38.017 7.66 49.49-1.27 26.83-12.301 43.188-22.993 59.024-10.555 15.633-21.441 31.766-21.768 56.21l-5.357 2.077c-.048.019-.095.038-.142.057-21.04 8.658-43.686 33.469-43.686 67.487v116.669c.001 11.309 9.201 20.51 20.51 20.51zm138.503-192.699-33.356-27.66 21.587-8.369c3.518 2.917 14.187 11.765 23.139 19.188zm65.331-50.772c.006 1.73.259 3.334.755 4.811-3.762 3.12-17.227 14.285-21.478 17.81-2.989 2.479-4.79 6.069-5.196 9.54l-12.986.001c-.419-3.631-2.271-7.114-5.198-9.542l-21.519-17.844c.512-1.533.751-3.348.751-4.854v-10.768c19.95 8.712 43.896 9.509 64.861.022l.009 10.812v.001c.001.003.001.007.001.011zm-31.484-19.033c-.001 0-.003 0-.003 0-.07 0-.14 0-.209 0-39.805-.133-64.41-31.449-64.41-62.639v-44.624h22.6c17.259 0 32.443-9.051 41.057-22.656 8.613 13.604 23.798 22.656 41.057 22.656h22.595v43.934c-.001 34.209-27.957 63.324-62.687 63.329zm-.933 106.526-20.393-28.46 8.015-11.87 24.764-.002 8.013 11.867zm32.924-36.721-11.37-16.841c14.798-12.271 11.183-9.274 23.106-19.16 1.52.589-4.874-1.888 21.594 8.363zm75.552-61.902c9.031 13.372 17.036 25.225 18.832 41.824-.226-.087-79.68-30.847-79.892-30.965l-.001-1.308-.015-18.191c16.192-12.287 27.679-30.825 30.535-52.314 1.351-.029 4.363-.334 5.347-.499 2.562 27.941 14.517 45.642 25.194 61.453zm-10.772-95.846c0 10.501-8.089 19.084-19.046 19.828v-39.666c11.06.723 19.046 9.527 19.046 19.838zm-188.345-55.941c0-49.961 40.646-90.608 90.606-90.608 49.962 0 90.609 40.647 90.609 90.608v23.589c-6.425-2.53-13.481-3.102-20.088-1.969h-29.463c-18.503 0-33.557-15.054-33.557-33.557 0-4.142-3.357-7.5-7.5-7.5s-7.5 3.358-7.5 7.5c0 18.503-15.053 33.557-33.557 33.557h-29.468c-6.495-1.111-13.654-.569-20.084 1.968v-23.588zm11.914 36.103v39.665c-10.939-.743-19.046-9.308-19.046-19.828 0-10.377 8.069-19.131 19.046-19.837zm-29.815 115.669c10.675-15.81 22.628-33.512 25.19-61.439 1.193.2 4.054.469 5.264.497 2.667 21.609 14.059 40.33 30.635 52.576v19.194c-1 .554-19.922 7.77-78.618 30.526l-1.31.508c1.792-16.614 9.803-28.479 18.839-41.862z"/></g></g></svg>
