<svg id="Layer_1" enable-background="new 0 0 512.009 512.009" height="512" viewBox="0 0 512.009 512.009" width="512" xmlns="http://www.w3.org/2000/svg"><g><g><path d="m400.445 219.946c0-12.423-5.021-23.669-13.143-31.83-4.729-4.752-6.985-11.416-6.566-18.108.046-.735.069-1.477.069-2.224 0-12.357-6.346-23.232-15.956-29.545-6.484-4.259-10.58-11.318-10.58-19.076v-12.115c0-54.116-43.287-98.97-97.401-99.369-54.541-.401-98.874 43.689-98.874 98.135v13.349c0 7.758-4.096 14.817-10.58 19.076-9.61 6.313-15.956 17.188-15.956 29.545 0 .747.023 1.489.07 2.224.419 6.692-1.836 13.355-6.566 18.108-8.122 8.16-13.143 19.406-13.143 31.83 0 12.501 5.084 23.81 13.296 31.983 4.636 4.614 6.94 10.966 6.445 17.487-.161 2.125-.133 4.301.102 6.516 1.081 10.188 6.59 19.068 14.489 24.783l5.92 6.365h206l8.029-6.355c7.905-5.714 13.42-14.6 14.501-24.792.235-2.214.263-4.391.102-6.516-.495-6.521 1.81-12.874 6.445-17.487 8.213-8.174 13.297-19.483 13.297-31.984z" fill="#7b6c79"/><path d="m180.352 275.931c-.235-2.214-.263-4.391-.102-6.516.495-6.521-1.81-12.874-6.445-17.487-8.211-8.173-13.296-19.482-13.296-31.983 0-12.423 5.021-23.669 13.143-31.83 4.729-4.752 6.985-11.416 6.566-18.108-.046-.735-.07-1.477-.07-2.224 0-12.357 6.346-23.232 15.956-29.545 6.484-4.259 10.58-11.318 10.58-19.076v-13.349c0-45.762 31.322-84.204 73.697-95.065-7.522-1.942-15.394-3.01-23.513-3.069-54.541-.401-98.874 43.689-98.874 98.135v13.349c0 7.758-4.096 14.817-10.58 19.076-9.61 6.313-15.956 17.188-15.956 29.545 0 .747.023 1.489.07 2.224.419 6.692-1.836 13.355-6.566 18.108-8.122 8.16-13.143 19.406-13.143 31.83 0 12.501 5.084 23.81 13.296 31.983 4.636 4.614 6.94 10.966 6.445 17.487-.161 2.125-.133 4.301.102 6.516 1.081 10.188 6.59 19.068 14.489 24.783l5.92 6.365h48.689l-5.92-6.365c-7.898-5.715-13.407-14.596-14.488-24.784z" fill="#665e68"/><path d="m401.524 314.443c-3.073-1.19-40.729-15.774-69.182-26.793l-3.104 1.846-11.931-4.681-12.486 46.931h-92.271l-19.096-44.908-10.633 4.074-2.896-3.292c-28.754 11.147-68.462 26.542-69.184 26.821-16.69 6.869-39.039 28.481-39.039 60.552v116.669c0 7.185 5.824 13.009 13.009 13.009h342.841c7.185 0 13.009-5.824 13.009-13.009 0-10.749 0-104.015 0-116.669.001-27.618-17.682-51.761-39.037-60.55z" fill="#eee1dd"/><path d="m212.551 331.746h92.271l12.486-46.931-5.486-2.152-1.241-3.44c-5.423-2.1-9.07-3.512-9.922-3.842-2.766-1.069-4.605-3.731-4.613-6.713l-.019-23.473-6.288-2.781h-70.833l-2.73 2.928v23.283c0 5.524-4.927 6.854-7.028 7.669-.26.101-3.033 1.176-7.478 2.899l-1.015 4.888-7.2 2.759z" fill="#ffcebe"/><path d="m218.906 242.413-2.73 2.928v23.283c0 5.524-4.927 6.854-7.028 7.669-.26.101-3.033 1.176-7.478 2.899l-1.015 4.888-7.2 2.759 19.096 44.908h46.672l-2.901-7.845v-81.488h-37.416z" fill="#f5b2a2"/><path d="m300.78 309.452c-26.647 19.271-62.651 19.271-89.298 0l-3.66 4.544 48.309 133.159 48.691-130.659z" fill="#f27182"/><path d="m256.322 323.901c-15.727.039-31.462-4.775-44.84-14.449l-3.66 4.544 48.309 133.159 22.972-61.643z" fill="#ed5469"/><path d="m256.131 447.155 60.053-53.719c2.193-1.961 3.064-5.008 2.24-7.831l-5.393-18.491c-1.012-3.471.548-7.176 3.738-8.878l22.478-11.989c3.008-1.604 4.589-5.008 3.874-8.341l-10.777-50.257c-8.45-3.272-16.082-6.229-21.761-8.428z" fill="#fff5f5"/><path d="m173.016 346.248 22.477 11.989c3.19 1.702 4.75 5.407 3.738 8.878l-5.393 18.491c-.823 2.823.048 5.87 2.24 7.831l60.053 53.719-54.461-167.965c-5.312 2.06-13.019 5.047-21.745 8.43l-10.784 50.286c-.714 3.333.867 6.736 3.875 8.341z" fill="#fff5f5"/><path d="m315.846 125.998c-10.186-10.097-24.509-28.255-35.243-52.213-2.725-6.082-9.125-3.641-9.908 1.283-1.236 7.764-7.563 33.995-38.371 59.248v51.727c0 30.417 18.784 56.963 45.319 68.115 28.781-8.923 49.855-36.178 49.855-67.766v-32.142c-.001-10.587-4.133-20.799-11.652-28.252z" fill="#ffdecf"/><path d="m234.215 186.392v-53.655c-7.657 6.498-16.899 12.958-28.066 19.05-12.926 7.051-21.002 20.571-21.002 35.295 0 36.577 28.593 70.015 71.905 70.16 8.344.028 16.359-1.453 23.804-4.169-27.121-9.896-46.641-36.282-46.641-66.681z" fill="#ffcebe"/><path d="m103.072 375.19c0-28.427 13.419-52.081 25.602-67.699-10.406 4.034-17.628 6.834-17.932 6.952-16.69 6.869-39.039 28.481-39.039 60.552v116.669c0 7.185 5.824 13.009 13.009 13.009h18.36c0-40.096 0-97.718 0-129.483z" fill="#e1d3ce"/></g><g><path d="m84.585 512.009h342.841c11.309 0 20.509-9.2 20.509-20.509v-50.48c0-4.142-3.357-7.5-7.5-7.5s-7.5 3.358-7.5 7.5v50.481c0 3.038-2.472 5.509-5.509 5.509h-39.699v-129.839c0-4.142-3.357-7.5-7.5-7.5s-7.5 3.358-7.5 7.5v129.839h-109.224v-46.665l57.553-51.482c4.32-3.864 6.063-9.957 4.44-15.521l-5.394-18.489c-.019-.064.009-.13.067-.162l22.479-11.989c5.929-3.163 9.086-9.96 7.677-16.531l-7.864-36.673c6.929 2.684 49.26 19.077 56.15 21.746 17.068 7.062 34.323 27.716 34.323 53.588v31.188c0 4.142 3.357 7.5 7.5 7.5s7.5-3.358 7.5-7.5v-31.188c0-29.149-17.963-56.901-43.684-67.487-.049-.02-.097-.04-.146-.058-1.52-.589-11.5-4.454-24.639-9.542 6.197-8.149 9.405-18.312 8.589-29.059-.33-4.353 1.222-8.582 4.258-11.604 20.595-20.498 20.725-53.774.178-74.418-5.393-5.418-4.313-12.138-4.313-15.042 0-14.472-7.229-27.86-19.339-35.813-4.507-2.961-7.198-7.749-7.198-12.808v-12.115c0-93.917-113.166-142.607-180.057-76.208-20.131 19.983-31.217 46.609-31.217 74.974v13.348c0 5.059-2.691 9.847-7.198 12.808-12.789 8.4-20.223 22.944-19.255 38.507.298 4.741-1.305 9.241-4.396 12.347-9.884 9.93-15.327 23.113-15.327 37.121 0 14.101 5.506 27.347 15.504 37.299 3.035 3.021 4.588 7.249 4.259 11.601-.818 10.718 2.376 20.889 8.583 29.054-13.89 5.385-24.27 9.409-24.635 9.551-.048.019-.095.038-.143.057-21.04 8.659-43.685 33.471-43.685 67.487v116.669c.002 11.308 9.202 20.508 20.512 20.508zm171.418-89.335c-26.463-81.616-15.211-46.912-31.658-97.639 4.017 1.64 8.169 2.967 12.439 3.974 4.031.953 8.07-1.547 9.021-5.58.95-4.032-1.548-8.07-5.579-9.02-8.083-1.905-15.643-5.227-22.522-9.856l-6.84-21.095c.164-.064.31-.12.429-.166.047-.018.08-.031.12-.047.165-.064.277-.107.319-.124l.434-.161c7.553-2.778 11.383-7.657 11.383-14.5v-10.708c19.658 8.596 43.957 9.493 64.862.054l.009 10.718c.016 6.113 3.709 11.486 9.405 13.688l3.307 1.281-6.829 21.062c-6.879 4.627-14.438 7.949-22.518 9.854-4.032.95-6.529 4.989-5.579 9.021.95 4.033 4.994 6.528 9.021 5.579 4.269-1.006 8.421-2.333 12.436-3.973-15.668 48.317-6.444 19.866-31.66 97.638zm-57.109-71.219-22.478-11.989h.001c-.055-.029-.084-.091-.071-.151l9.936-46.328c1.061-.411 9.356-3.627 10.573-4.099 1.927 5.944 41.539 128.113 43.446 133.994l-39.351-35.201c-.039-.035-.055-.09-.04-.141l5.393-18.49c1.996-6.84-1.12-14.241-7.409-17.595zm-6.566-164.536c0-11.958 6.55-22.959 17.094-28.711 30.262-16.508 58.001-42.303 66.897-75.379 11.57 23.582 25.243 39.398 32.222 46.605 6.836 7.062 11.136 13.907 11.136 24.653v32.142c0 34.735-28.354 63.346-62.703 63.35-.003 0-.005 0-.005 0-.072 0-.142 0-.211 0-37.889-.127-64.43-29.568-64.43-62.66zm143.261 152.547-22.478 11.989c-6.287 3.354-9.403 10.753-7.409 17.596l5.394 18.49c.015.051-.001.106-.04.142l-39.351 35.2c1.916-5.908 41.52-128.056 43.436-133.966l10.59 4.101 9.929 46.298c.012.06-.018.122-.071.15zm-205.311-93.016c-7.148-7.116-11.086-16.586-11.086-26.667 0-10.014 3.892-19.439 10.959-26.539 6.117-6.147 9.301-14.846 8.734-23.866-.617-9.934 4.045-19.468 12.519-25.033 8.744-5.743 13.964-15.218 13.964-25.345v-13.349c0-50.068 40.496-90.638 90.631-90.638 49.961 0 90.643 41.381 90.643 91.872v12.115c0 10.127 5.22 19.602 13.964 25.345 8.297 5.45 13.15 14.892 12.519 25.032-.564 9.022 2.619 17.722 8.735 23.868 14.563 14.631 14.723 38.423-.128 53.206-6.149 6.12-9.296 14.639-8.633 23.371.648 8.525-2.592 16.493-8.514 22.16-13.201-5.113-47.147-18.259-61.165-23.688l-.016-19.418c19.144-14.49 31.275-37.391 31.275-62.646v-32.142c0-12.814-5.243-25.031-13.871-33.578l-.001-.001h.001c-11.996-11.888-24.627-29.75-33.679-49.952-5.716-12.765-22.189-9.221-24.16 3.17-3.274 20.59-21.402 49.859-60.729 71.314-15.365 8.381-24.91 24.428-24.91 41.879 0 24.723 11.685 47.744 31.22 62.162v19.155c-.37.198-60.742 23.581-61.134 23.733-5.962-5.71-9.15-13.698-8.502-22.145 0-.001 0-.003 0-.004.66-8.734-2.487-17.252-8.636-23.371zm-51.203 128.381c0-28.907 20.502-47.866 34.326-53.588 1.753-.68 30.272-11.736 56.149-21.768l-7.87 36.696c-1.409 6.57 1.748 13.368 7.677 16.531h.001l22.478 11.989c.058.031.085.097.066.161l-5.393 18.491c-1.622 5.564.12 11.657 4.44 15.521l57.553 51.482v46.665h-109.22v-129.84c0-4.142-3.357-7.5-7.5-7.5s-7.5 3.358-7.5 7.5v129.839h-39.697c-3.038 0-5.51-2.471-5.51-5.509z"/></g></g></svg>
