<svg class="animated" id="freepik_stories-add-user" xmlns="http://www.w3.org/2000/svg" viewBox="0 0 500 500" version="1.1" xmlns:xlink="http://www.w3.org/1999/xlink" xmlns:svgjs="http://svgjs.com/svgjs"><style>svg#freepik_stories-add-user:not(.animated) .animable {opacity: 0;}svg#freepik_stories-add-user.animated #freepik--background-complete--inject-131 {animation: 1s 1 forwards cubic-bezier(.36,-0.01,.5,1.38) fadeIn;animation-delay: 0s;}svg#freepik_stories-add-user.animated #freepik--Shadow--inject-131 {animation: 1s 1 forwards cubic-bezier(.36,-0.01,.5,1.38) zoomOut;animation-delay: 0s;}svg#freepik_stories-add-user.animated #freepik--Window--inject-131 {animation: 1s 1 forwards cubic-bezier(.36,-0.01,.5,1.38) zoomIn,6s Infinite  linear floating;animation-delay: 0s,1s;}svg#freepik_stories-add-user.animated #freepik--Character--inject-131 {animation: 1s 1 forwards cubic-bezier(.36,-0.01,.5,1.38) slideRight;animation-delay: 0s;}            @keyframes fadeIn {                0% {                    opacity: 0;                }                100% {                    opacity: 1;                }            }                    @keyframes zoomOut {                0% {                    opacity: 0;                    transform: scale(1.5);                }                100% {                    opacity: 1;                    transform: scale(1);                }            }                    @keyframes zoomIn {                0% {                    opacity: 0;                    transform: scale(0.5);                }                100% {                    opacity: 1;                    transform: scale(1);                }            }                    @keyframes floating {                0% {                    opacity: 1;                    transform: translateY(0px);                }                50% {                    transform: translateY(-10px);                }                100% {                    opacity: 1;                    transform: translateY(0px);                }            }                    @keyframes slideRight {                0% {                    opacity: 0;                    transform: translateX(30px);                }                100% {                    opacity: 1;                    transform: translateX(0);                }            }        </style><g id="freepik--background-complete--inject-131" class="animable" style="transform-origin: 250px 228.23px;"><rect y="382.4" width="500" height="0.25" style="fill: rgb(235, 235, 235); transform-origin: 250px 382.525px;" id="elraazt51wrlr" class="animable"></rect><rect x="416.78" y="398.49" width="33.12" height="0.25" style="fill: rgb(235, 235, 235); transform-origin: 433.34px 398.615px;" id="elgq1lrpsvekv" class="animable"></rect><rect x="322.53" y="401.21" width="8.69" height="0.25" style="fill: rgb(235, 235, 235); transform-origin: 326.875px 401.335px;" id="el29wx9k6v2kj" class="animable"></rect><rect x="396.59" y="389.21" width="19.19" height="0.25" style="fill: rgb(235, 235, 235); transform-origin: 406.185px 389.335px;" id="el5eoz8n64pc6" class="animable"></rect><rect x="52.46" y="390.89" width="43.19" height="0.25" style="fill: rgb(235, 235, 235); transform-origin: 74.055px 391.015px;" id="eljy5vi7u5b7" class="animable"></rect><rect x="104.56" y="390.89" width="6.33" height="0.25" style="fill: rgb(235, 235, 235); transform-origin: 107.725px 391.015px;" id="elo7naptl5g7" class="animable"></rect><rect x="131.47" y="395.11" width="93.68" height="0.25" style="fill: rgb(235, 235, 235); transform-origin: 178.31px 395.235px;" id="elo2i13i6nu1" class="animable"></rect><path d="M237,337.8H43.91a5.71,5.71,0,0,1-5.7-5.71V60.66A5.71,5.71,0,0,1,43.91,55H237a5.71,5.71,0,0,1,5.71,5.71V332.09A5.71,5.71,0,0,1,237,337.8ZM43.91,55.2a5.46,5.46,0,0,0-5.45,5.46V332.09a5.46,5.46,0,0,0,5.45,5.46H237a5.47,5.47,0,0,0,5.46-5.46V60.66A5.47,5.47,0,0,0,237,55.2Z" style="fill: rgb(235, 235, 235); transform-origin: 140.46px 196.4px;" id="eldbgrio72spl" class="animable"></path><path d="M453.31,337.8H260.21a5.72,5.72,0,0,1-5.71-5.71V60.66A5.72,5.72,0,0,1,260.21,55h193.1A5.71,5.71,0,0,1,459,60.66V332.09A5.71,5.71,0,0,1,453.31,337.8ZM260.21,55.2a5.47,5.47,0,0,0-5.46,5.46V332.09a5.47,5.47,0,0,0,5.46,5.46h193.1a5.47,5.47,0,0,0,5.46-5.46V60.66a5.47,5.47,0,0,0-5.46-5.46Z" style="fill: rgb(235, 235, 235); transform-origin: 356.75px 196.4px;" id="elv7d3a89x7nm" class="animable"></path><g id="elaus36btxdlr"><rect x="219.1" y="254.53" width="18.62" height="127.87" style="fill: rgb(230, 230, 230); transform-origin: 228.41px 318.465px; transform: rotate(180deg);" class="animable"></rect></g><polygon points="225.66 382.4 219.1 382.4 219.1 358.1 232.53 358.1 225.66 382.4" style="fill: rgb(240, 240, 240); transform-origin: 225.815px 370.25px;" id="eltshyr62efzm" class="animable"></polygon><g id="eld5xuxau35va"><rect x="416.02" y="254.53" width="18.62" height="127.87" style="fill: rgb(230, 230, 230); transform-origin: 425.33px 318.465px; transform: rotate(180deg);" class="animable"></rect></g><g id="elk4ai4a22yw"><rect x="219.1" y="254.53" width="202.64" height="121.24" style="fill: rgb(240, 240, 240); transform-origin: 320.42px 315.15px; transform: rotate(180deg);" class="animable"></rect></g><polygon points="415.19 382.4 421.75 382.4 421.75 358.1 408.32 358.1 415.19 382.4" style="fill: rgb(240, 240, 240); transform-origin: 415.035px 370.25px;" id="elzpaylpmamxn" class="animable"></polygon><g id="elkdosmoxmz7"><rect x="334.83" y="284.68" width="100.29" height="60.07" style="fill: rgb(230, 230, 230); transform-origin: 384.975px 314.715px; transform: rotate(-90deg);" class="animable"></rect></g><path d="M379,268.09h11.88A20.15,20.15,0,0,0,404.56,263H365.38A20.17,20.17,0,0,0,379,268.09Z" style="fill: rgb(240, 240, 240); transform-origin: 384.97px 265.546px;" id="elegti3te4lds" class="animable"></path><g id="elyxsiyn0imf"><rect x="270.28" y="284.68" width="100.29" height="60.07" style="fill: rgb(230, 230, 230); transform-origin: 320.425px 314.715px; transform: rotate(-90deg);" class="animable"></rect></g><path d="M313.87,268.09h11.89A20.17,20.17,0,0,0,339.41,263H300.23A20.14,20.14,0,0,0,313.87,268.09Z" style="fill: rgb(240, 240, 240); transform-origin: 319.82px 265.546px;" id="elk7ayxobrlyg" class="animable"></path><g id="el4hx0k5zkktx"><rect x="205.73" y="284.68" width="100.29" height="60.07" style="fill: rgb(230, 230, 230); transform-origin: 255.875px 314.715px; transform: rotate(-90deg);" class="animable"></rect></g><path d="M249.33,268.09h11.88A20.17,20.17,0,0,0,274.86,263H235.68A20.15,20.15,0,0,0,249.33,268.09Z" style="fill: rgb(240, 240, 240); transform-origin: 255.27px 265.546px;" id="eljazaox7hzdo" class="animable"></path><g id="el84szje6h0rk"><rect x="74.61" y="96.78" width="127.06" height="285.62" style="fill: rgb(240, 240, 240); transform-origin: 138.14px 239.59px; transform: rotate(180deg);" class="animable"></rect></g><g id="elr26zhu11cf"><rect x="74.61" y="96.78" width="124.38" height="285.62" style="fill: rgb(245, 245, 245); transform-origin: 136.8px 239.59px; transform: rotate(180deg);" class="animable"></rect></g><g id="elm6vgm5afz"><rect x="0.47" y="184.98" width="272.66" height="109.22" style="fill: rgb(240, 240, 240); transform-origin: 136.8px 239.59px; transform: rotate(90deg);" class="animable"></rect></g><path d="M180.67,154h0a29.77,29.77,0,0,0-29.77-29.78H122.7A29.78,29.78,0,0,0,92.92,154h87.75Z" style="fill: rgb(250, 250, 250); transform-origin: 136.795px 139.11px;" id="elvrmrmkoz4ko" class="animable"></path><g id="elhitj36naa0a"><rect x="104.23" y="282.52" width="65.14" height="87.75" style="fill: rgb(245, 245, 245); transform-origin: 136.8px 326.395px; transform: rotate(90deg);" class="animable"></rect></g><rect x="141.97" y="172.33" width="38.71" height="113.09" style="fill: rgb(245, 245, 245); transform-origin: 161.325px 228.875px;" id="elbwsjc3m9n1" class="animable"></rect><rect x="92.92" y="172.33" width="38.71" height="113.09" style="fill: rgb(245, 245, 245); transform-origin: 112.275px 228.875px;" id="el6ibhikiaqds" class="animable"></rect><path d="M107,228.37H91.1a2.46,2.46,0,0,1-2.46-2.46h0a2.47,2.47,0,0,1,2.46-2.46H107a2.47,2.47,0,0,1,2.46,2.46h0A2.46,2.46,0,0,1,107,228.37Z" style="fill: rgb(224, 224, 224); transform-origin: 99.05px 225.91px;" id="elqk0zt2juvom" class="animable"></path><g id="elid9r0e4z8qn"><rect x="-53.16" y="238.61" width="272.66" height="1.97" style="fill: rgb(240, 240, 240); transform-origin: 83.17px 239.595px; transform: rotate(90deg);" class="animable"></rect></g><g id="el2eop5cfk97m"><rect x="282.03" y="82.33" width="134.74" height="140.85" style="fill: rgb(230, 230, 230); transform-origin: 349.4px 152.755px; transform: rotate(180deg);" class="animable"></rect></g><g id="eli1s4f36n7ds"><rect x="278.64" y="82.33" width="134.74" height="140.85" style="fill: rgb(245, 245, 245); transform-origin: 346.01px 152.755px; transform: rotate(180deg);" class="animable"></rect></g><g id="el13lj76em6xu"><rect x="270.77" y="223.18" width="146.01" height="7.32" style="fill: rgb(230, 230, 230); transform-origin: 343.775px 226.84px; transform: rotate(180deg);" class="animable"></rect></g><g id="elh3hloccibrc"><rect x="266.95" y="223.18" width="138.49" height="7.32" style="fill: rgb(245, 245, 245); transform-origin: 336.195px 226.84px; transform: rotate(180deg);" class="animable"></rect></g><g id="elow2byqzcjm"><rect x="282.16" y="91.48" width="127.7" height="122.55" style="fill: rgb(255, 255, 255); transform-origin: 346.01px 152.755px; transform: rotate(90deg);" class="animable"></rect></g><g id="elc0fkf74pwdg"><rect x="282.16" y="149.36" width="127.7" height="6.79" style="fill: rgb(245, 245, 245); transform-origin: 346.01px 152.755px; transform: rotate(90deg);" class="animable"></rect></g><g id="elig4zgy6p9cn"><rect x="222.17" y="151.47" width="127.7" height="2.57" style="fill: rgb(230, 230, 230); transform-origin: 286.02px 152.755px; transform: rotate(90deg);" class="animable"></rect></g><g id="elgzki321sugg"><rect x="286.84" y="151.47" width="127.7" height="2.57" style="fill: rgb(230, 230, 230); transform-origin: 350.69px 152.755px; transform: rotate(90deg);" class="animable"></rect></g><path d="M300.15,226.53c-2.48-25.68-4.21-67.34-2.87-81.28a1.73,1.73,0,0,1,.7-1.2h0a1.71,1.71,0,0,1,2.72,1.43c-.23,6.91-.5,24.17,1,53.94.73,14.82,1.78,25,1.06,27.11Z" style="fill: rgb(230, 230, 230); transform-origin: 299.908px 185.125px;" id="elt7fyrkazvye" class="animable"></path><path d="M290.91,167.35c-7.06-7.84-21.47-13.41-36.15-13.38-5.77,0,17.54,9.11,27.23,19.16,7.53,7.8,16,20.93,18.91,28.22C299,186,298,175.18,290.91,167.35Z" style="fill: rgb(230, 230, 230); transform-origin: 277.377px 177.66px;" id="elktd876e2jc" class="animable"></path><path d="M304.9,169.74c5.86-8.16,19.38-14.44,34-15.15,5.74-.28-16.12,10-24.28,20.46-6.33,8.15-12.83,21.66-14.62,29.06C299.59,188.74,299,177.9,304.9,169.74Z" style="fill: rgb(230, 230, 230); transform-origin: 319.804px 179.347px;" id="elvs0ueao0epd" class="animable"></path><path d="M290.6,138.74c-6-6.64-18.18-11.36-30.62-11.33-4.88,0,14.85,7.72,23.06,16.22,6.38,6.61,13.57,17.73,16,23.9C297.47,154.55,296.57,145.37,290.6,138.74Z" style="fill: rgb(230, 230, 230); transform-origin: 279.127px 147.47px;" id="elry06uh4r7wi" class="animable"></path><path d="M302.44,148.55c5-6.91,16.41-12.23,28.81-12.83,4.86-.23-13.65,8.44-20.56,17.33-5.36,6.9-10.87,18.34-12.38,24.61C298,164.64,297.48,155.46,302.44,148.55Z" style="fill: rgb(230, 230, 230); transform-origin: 315.089px 156.688px;" id="elesi8uaosyo9" class="animable"></path><path d="M301.14,254.53h0a14.58,14.58,0,0,1-14.56-13.75l-1.29-22.32H317l-1.29,22.32A14.58,14.58,0,0,1,301.14,254.53Z" style="fill: rgb(230, 230, 230); transform-origin: 301.145px 236.495px;" id="elynx3zm6afbe" class="animable"></path><polygon points="319.05 223.53 283.24 223.53 282.21 214.24 320.07 214.24 319.05 223.53" style="fill: rgb(230, 230, 230); transform-origin: 301.14px 218.885px;" id="elswix8a5czaj" class="animable"></polygon></g><g id="freepik--Shadow--inject-131" class="animable" style="transform-origin: 250px 416.24px;"><ellipse id="freepik--path--inject-131" cx="250" cy="416.24" rx="193.89" ry="11.32" style="fill: rgb(245, 245, 245); transform-origin: 250px 416.24px;" class="animable"></ellipse></g><g id="freepik--Window--inject-131" class="animable animator-active" style="transform-origin: 198.69px 216.91px;"><path d="M52.3,113.53a6.3,6.3,0,0,1,6.28-6.28H338.8a6.3,6.3,0,0,1,6.28,6.28v20.21H52.3Z" style="fill: rgb(38, 50, 56); transform-origin: 198.69px 120.495px;" id="el0pku1cqupvp" class="animable"></path><path d="M103.07,125.79a5.3,5.3,0,1,1,5.3-5.3A5.3,5.3,0,0,1,103.07,125.79Zm0-9.49a4.19,4.19,0,1,0,4.19,4.19A4.2,4.2,0,0,0,103.07,116.3Z" style="fill: rgb(240, 240, 240); transform-origin: 103.07px 120.49px;" id="elvbl0mzq6al9" class="animable"></path><path d="M86.24,125.79a5.3,5.3,0,1,1,5.31-5.3A5.3,5.3,0,0,1,86.24,125.79Zm0-9.49a4.19,4.19,0,1,0,4.2,4.19A4.2,4.2,0,0,0,86.24,116.3Z" style="fill: rgb(240, 240, 240); transform-origin: 86.25px 120.49px;" id="elvifpon8zis" class="animable"></path><path d="M69.42,125.79a5.3,5.3,0,1,1,5.31-5.3A5.3,5.3,0,0,1,69.42,125.79Zm0-9.49a4.19,4.19,0,1,0,4.19,4.19A4.2,4.2,0,0,0,69.42,116.3Z" style="fill: rgb(240, 240, 240); transform-origin: 69.43px 120.49px;" id="eliag00iod03" class="animable"></path><path d="M338.8,326.57H58.58a6.3,6.3,0,0,1-6.28-6.28V133.74H345.08V320.29A6.3,6.3,0,0,1,338.8,326.57Z" style="fill: rgb(21, 192, 116); transform-origin: 198.69px 230.155px;" id="elgslzskod12r" class="animable"></path><rect x="54.08" y="139.11" width="289.22" height="165.33" style="fill: rgb(255, 255, 255); transform-origin: 198.69px 221.775px;" id="elqz2w43sm54l" class="animable"></rect><rect x="68.25" y="153.28" width="117.79" height="22.33" rx="3.81" style="fill: rgb(21, 192, 116); transform-origin: 127.145px 164.445px;" id="el7uf8840b7xi" class="animable"></rect><path d="M325.32,154.28a2.81,2.81,0,0,1,2.81,2.81V171.8a2.81,2.81,0,0,1-2.81,2.81H215.15a2.81,2.81,0,0,1-2.81-2.81V157.09a2.81,2.81,0,0,1,2.81-2.81H325.32m0-1H215.15a3.82,3.82,0,0,0-3.81,3.81V171.8a3.81,3.81,0,0,0,3.81,3.81H325.32a3.81,3.81,0,0,0,3.81-3.81V157.09a3.82,3.82,0,0,0-3.81-3.81Z" style="fill: rgb(21, 192, 116); transform-origin: 270.235px 164.445px;" id="elslmmoudm06" class="animable"></path><path d="M87.83,185.61a18.58,18.58,0,1,1-18.58,18.58,18.6,18.6,0,0,1,18.58-18.58m0-1a19.58,19.58,0,1,0,19.58,19.58,19.58,19.58,0,0,0-19.58-19.58Z" style="fill: rgb(21, 192, 116); transform-origin: 87.83px 204.19px;" id="elfsh129z2ro8" class="animable"></path><g id="elfs6ivvcqpc"><path d="M102,211.89a16.16,16.16,0,0,1-28.41,0,25.56,25.56,0,0,1,28.41,0Z" style="fill: rgb(21, 192, 116); opacity: 0.4; transform-origin: 87.795px 213.962px;" class="animable"></path></g><g id="elb0i31fk4dh9"><circle cx="87.83" cy="198.66" r="7.2" style="fill: rgb(21, 192, 116); opacity: 0.4; transform-origin: 87.83px 198.66px;" class="animable"></circle></g><g id="elz7zmly7455"><path d="M319.06,214.26H128.48a10.07,10.07,0,0,1-10.07-10.07h0a10.06,10.06,0,0,1,10.07-10.06H319.06a10.06,10.06,0,0,1,10.07,10.06h0A10.07,10.07,0,0,1,319.06,214.26Z" style="fill: rgb(21, 192, 116); opacity: 0.4; transform-origin: 223.77px 204.195px;" class="animable"></path></g><path d="M87.83,239a18.58,18.58,0,1,1-18.58,18.58A18.59,18.59,0,0,1,87.83,239m0-1a19.58,19.58,0,1,0,19.58,19.58A19.58,19.58,0,0,0,87.83,238Z" style="fill: rgb(21, 192, 116); transform-origin: 87.83px 257.58px;" id="elv5azq549y4" class="animable"></path><g id="elqbaasoujpu"><path d="M102,265.22a16.16,16.16,0,0,1-28.41,0,25.61,25.61,0,0,1,28.41,0Z" style="fill: rgb(21, 192, 116); opacity: 0.4; transform-origin: 87.795px 267.297px;" class="animable"></path></g><g id="elv9ytegvdhyf"><circle cx="87.83" cy="252" r="7.2" style="fill: rgb(21, 192, 116); opacity: 0.4; transform-origin: 87.83px 252px;" class="animable"></circle></g><g id="el29i14nvcezo"><path d="M128.48,247.46H319.06a10.07,10.07,0,0,1,10.07,10.07v0a10.07,10.07,0,0,1-10.07,10.07H128.48a10.07,10.07,0,0,1-10.07-10.07v0a10.06,10.06,0,0,1,10.06-10.06Z" style="fill: rgb(21, 192, 116); opacity: 0.4; transform-origin: 223.77px 257.53px;" class="animable"></path></g><g id="ely4va78ciltp"><path d="M272.12,267.3a93.48,93.48,0,0,0,1.79,18.22,37.58,37.58,0,0,0-18.39,32.23,37.17,37.17,0,0,0,1,8.82H338.8a6.3,6.3,0,0,0,6.28-6.28v-144A93.33,93.33,0,0,0,272.12,267.3Z" style="opacity: 0.1; transform-origin: 300.3px 251.43px;" class="animable"></path></g></g><g id="freepik--Character--inject-131" class="animable" style="transform-origin: 365.31px 271.24px;"><g id="el1975unq5gfb"><circle cx="365.31" cy="271.24" r="83.19" style="fill: rgb(21, 192, 116); transform-origin: 365.31px 271.24px; transform: rotate(-45deg);" class="animable"></circle></g><g id="elimauwb6fmv8"><circle cx="365.7" cy="271.13" r="75.84" style="fill: rgb(255, 255, 255); transform-origin: 365.7px 271.13px; transform: rotate(-45deg);" class="animable"></circle></g><path d="M340.11,220.25l-4.84,6.2s-4.25,3.22-5.86,6c-1.88,1.86-3.6,3.77-5.3,5.78a79.5,79.5,0,0,0-5.44,7.21,41.84,41.84,0,0,0-4.52,8.59,18.16,18.16,0,0,0-1.21,6,11.13,11.13,0,0,0,.76,4.25,10,10,0,0,0,3.17,4.2l1.06.8,1.59.3a53.59,53.59,0,0,0,9.52.94l1.26-.11L329,257.73c-1.07,0-3.37.21-4.42.19,0-.2.08-.4.13-.6a37.81,37.81,0,0,1,2.6-7c1.12-2.43,2.41-4.86,3.75-7.28,1.18-2.14,2.45-4.29,3.68-6.39l6-3.78,3.51-6.23Zm-15.61,39.5a1.68,1.68,0,0,1,0-.29.76.76,0,0,1,.09.23C324.62,259.93,324.55,259.94,324.5,259.75Z" style="fill: rgb(127, 62, 59); transform-origin: 328.594px 245.385px;" id="elzvau0rxzvnj" class="animable"></path><path d="M374.19,233.65c.15-.77-5.11-3.41-8.73-1.26-3.13,1.86-3.53,4.4-2.39,7.43,0,.21.08.42.11.63.07.49.13,1,.16,1.46.23,3.19-.61,6.16-4.2,7.85,0,.2-.49.41-.65.55a7.15,7.15,0,0,0-2.38,4.55c0,1.3,1.23,2.33,2.66,3.57l2,1.35,2.74-.26c8.41-2.47,12.34-10.15,12.16-10.72C373.51,245.24,373.54,239,374.19,233.65Z" style="fill: rgb(127, 62, 59); transform-origin: 365.893px 245.672px;" id="el14htouh1554n" class="animable"></path><path d="M392.37,251.87l-1.52-.26c-2-.32-10.92-2.34-15.23-2.72h0c-1,2.13-4.28,7.33-12.69,9.8l-2.08.49-2-1a5.3,5.3,0,0,1-2.18-3.84,5.69,5.69,0,0,1,2.18-4,.66.66,0,0,0,.17-.23c0-.24,0-.4,0-.42-.63.08-8.61,1.29-9.28,1.4a130,130,0,0,0-22.07,6.13l.08.72,1.45,12.59.54,4.77s4-.45,9.25-1.37c-1.43,12.74-1.71,31.2,2.66,54.93l17.07-.32,29.66-.55c.12-2-.1-6.14-.31-11.8l-.27-8.74c-.16-7.72-.13-17,.56-26.92.11-1.57.24-3.15.38-4.75h0c6.06,6.55,12.13,12.81,12.13,12.81l2.87-2.76c3.67-1.77,6.56-4.94,9.08-8.75l3.37-3.25S400.57,253.25,392.37,251.87Z" style="fill: rgb(21, 192, 116); transform-origin: 371.93px 288.875px;" id="elifqeals86hp" class="animable"></path><g id="elddwckr9tezn"><path d="M384.16,270.64a14.91,14.91,0,0,0,1.95,5.9l2.3,3.94c.11-1.57.24-3.15.38-4.75C387.21,274,385.63,272.29,384.16,270.64Z" style="opacity: 0.3; transform-origin: 386.475px 275.56px;" class="animable"></path></g><g id="el3tlsp3pzbj4"><path d="M388.8,275.74h0c-.14,1.6-.27,3.18-.38,4.75h0C388.52,278.92,388.66,277.33,388.8,275.74Z" style="opacity: 0.3; transform-origin: 388.61px 278.115px;" class="animable"></path></g><path d="M363.07,239.82c0,.21.07.42.11.63,0-.21-.07-.42-.11-.63Z" style="fill: rgb(127, 62, 59); transform-origin: 363.125px 240.135px;" id="elgrk19xaq9d" class="animable"></path><g id="elea86guh1jt9"><path d="M363.34,241.91c0-.48-.09-1-.16-1.46C363.25,240.94,363.31,241.43,363.34,241.91Z" style="opacity: 0.2; transform-origin: 363.26px 241.18px;" class="animable"></path></g><path d="M369.56,237.45c-.2.14-.39.29-.6.43a11.54,11.54,0,0,1-5.89,1.94c0,.21.07.42.11.63.07.49.13,1,.16,1.46,0,0,0,.06,0,.09A10.08,10.08,0,0,0,369.56,237.45Z" style="fill: rgb(127, 62, 59); transform-origin: 366.315px 239.725px;" id="el5tusebyvsua" class="animable"></path><path d="M380.79,250.41a2.23,2.23,0,0,0-1.66-1.7l-2.08-.5a1.24,1.24,0,0,0-1.36.59l-.07.09c-1,2.13-4.28,7.33-12.69,9.8l-.65.15h0l-1.43.34-2-1a5.3,5.3,0,0,1-2.18-3.84,5.69,5.69,0,0,1,2.18-4,2.16,2.16,0,0,0,.29-.37c.09-.23.07-.34-.09-.44-2.21-1.59-7.15.86-7.35,1.28-.21.21-.42.43-.63.68a6.93,6.93,0,0,0-1.6,5.3,10.69,10.69,0,0,0,5.07,7.76.23.23,0,0,0,.14,0,.29.29,0,0,0,.16,0,.33.33,0,0,0,.14-.27,6,6,0,0,1,3.7-5.52l1.75.94c-7.52,30.86-2.42,67.85-2.28,68.85h.58s0,0,0,0c0-.38-5.3-37.69,2.28-68.72l1.83-.44c2.13,2.6,1.12,6.46,1.11,6.5a.3.3,0,0,0,.09.3.31.31,0,0,0,.2.07.2.2,0,0,0,.11,0c.4-.18,9.86-4.32,13.17-8.27a15.8,15.8,0,0,0,3.22-6.5A2.12,2.12,0,0,0,380.79,250.41Z" style="fill: rgb(255, 255, 255); transform-origin: 365.13px 288.363px;" id="elree85i80bsf" class="animable"></path><g id="elbps5obdwpme"><path d="M369.56,237.45c-.2.14-.39.29-.6.43a11.54,11.54,0,0,1-5.89,1.94c0,.21.07.42.11.63.07.49.13,1,.16,1.46,0,0,0,.06,0,.09A10.08,10.08,0,0,0,369.56,237.45Z" style="opacity: 0.2; transform-origin: 366.315px 239.725px;" class="animable"></path></g><path d="M357.21,215.37c3.91-5,1.43-8-.23-7.72-1.57.74-3.06,2.83-3.83,7.51a11.82,11.82,0,0,0-.08,3.34C354.68,218.42,357.21,215.37,357.21,215.37Z" style="fill: rgb(38, 50, 56); transform-origin: 356.142px 213.066px;" id="elv2d67h5u2zc" class="animable"></path><path d="M373.6,226.4c10.83-19.05-10.56-21.27-14.92-17a18.55,18.55,0,0,0-3.67,4.72l-.91,1.79a27.36,27.36,0,0,0-1,2.59,30.63,30.63,0,0,0-1.7,9.83,11.44,11.44,0,0,0,11.7,11.49h0a11.54,11.54,0,0,0,5.89-1.94c.21-.14.4-.29.6-.43a13.66,13.66,0,0,0,3.59-3.78C375.4,230.08,374.82,228.27,373.6,226.4Z" style="fill: rgb(127, 62, 59); transform-origin: 364.013px 223.694px;" id="eltp4r942ipnh" class="animable"></path><path d="M353.55,215.32a.42.42,0,0,0,.07.58.43.43,0,0,0,.26.09.37.37,0,0,0,.22-.08.25.25,0,0,0,.1-.08,3.46,3.46,0,0,1,2.73-1.37.42.42,0,0,0,.44-.39.41.41,0,0,0-.38-.44,4.22,4.22,0,0,0-2,.49A4.58,4.58,0,0,0,353.55,215.32Z" style="fill: rgb(38, 50, 56); transform-origin: 355.418px 214.81px;" id="elhxg6rd65y3f" class="animable"></path><path d="M364.37,227.3a.21.21,0,0,0-.29,0,5.87,5.87,0,0,1-5,1.24.21.21,0,0,0-.24.16.22.22,0,0,0,.16.25,6.85,6.85,0,0,0,1.45.13,6,6,0,0,0,3.89-1.48A.21.21,0,0,0,364.37,227.3Z" style="fill: rgb(38, 50, 56); transform-origin: 361.628px 228.161px;" id="el880o7s8j3fy" class="animable"></path><path d="M359,220.16a26.31,26.31,0,0,1-4.69,5.21c1,1.38,3.16,1.28,3.16,1.28Z" style="fill: rgb(99, 15, 15); transform-origin: 356.655px 223.406px;" id="elernwdrt2j9o" class="animable"></path><path d="M355.46,220.4c.45.09,1-.39,1.11-1.08s-.07-1.31-.52-1.4-.95.39-1.11,1.08S355,220.31,355.46,220.4Z" style="fill: rgb(38, 50, 56); transform-origin: 355.745px 219.16px;" id="el2i4jzqftuvt" class="animable"></path><path d="M363.28,222c.45.09.94-.39,1.11-1.08s-.08-1.31-.53-1.4-.95.39-1.11,1.08S362.82,221.87,363.28,222Z" style="fill: rgb(38, 50, 56); transform-origin: 363.571px 220.76px;" id="el0k59jlss2asr" class="animable"></path><path d="M380.45,211.1c4.23-3.62-5.41-11-5.41-11s1.08,2.64-1.16,3.37-18-5.15-17.77,1.52a5.12,5.12,0,0,0,.87,2.63,7.6,7.6,0,0,0,1.7,1.75C362.34,212.15,369,213,372.6,213a18.54,18.54,0,0,0-1.19,4.34,11.55,11.55,0,0,0,2.19,9c2,3.48,4.67,3.38,6.95.73C384.21,223.61,387.74,216.6,380.45,211.1Z" style="fill: rgb(38, 50, 56); transform-origin: 370.405px 214.555px;" id="elofvm3cd1l6m" class="animable"></path><path d="M378.61,225.07c-1.66-.68-3.53.12-5,1.33a9.67,9.67,0,0,0-2.07,2.27c-1.41,2.21-.91,4.78,1.62,5l.44,0,.6,0a8.71,8.71,0,0,0,5.27-2.5,4.05,4.05,0,0,0,1.09-4A3.25,3.25,0,0,0,378.61,225.07Z" style="fill: rgb(127, 62, 59); transform-origin: 375.737px 229.245px;" id="elj1qrswzy2dm" class="animable"></path><path d="M341.7,328.81s-.27,2.34-.69,6.27a75.91,75.91,0,0,0,47.29.44c.1-4.75.17-7.59.17-7.59l-29.7.56h-.58Z" style="fill: rgb(38, 50, 56); transform-origin: 364.74px 333.505px;" id="elm5sn3q9pq5s" class="animable"></path><path d="M419,288.54a9.9,9.9,0,0,0-.58-2.49,9.26,9.26,0,0,0-.51-1.16l-.29-.54-.16-.28c-1.43-2.46-3-4.79-4.6-7l-9.08,8.75c1.2,1.5,2.37,3,3.45,4.54a7.17,7.17,0,0,1-.77,1.45,33,33,0,0,1-5,5.51,147.39,147.39,0,0,1-12.29,9.93l-1.39.18-5.58.76-5.49,3.71,3.61,7.34,4.54-2.32a17.43,17.43,0,0,0,3.19-.75,6.82,6.82,0,0,0,3.93-2.78,83.26,83.26,0,0,0,7.79-3.56,77.34,77.34,0,0,0,7.9-4.69q1.93-1.32,3.82-2.89a29.3,29.3,0,0,0,3.7-3.63,16.68,16.68,0,0,0,3.26-5.57A10.72,10.72,0,0,0,419,288.54Zm-11.69,1.58c0-.05,0-.11,0-.15,0-.24.09-.33.09-.19A1.07,1.07,0,0,1,407.33,290.12Z" style="fill: rgb(127, 62, 59); transform-origin: 397.878px 298.155px;" id="el02jixq7vk162" class="animable"></path><g id="elxzeqks2dmvl"><circle cx="292.97" cy="313.69" r="27.45" style="fill: rgb(38, 50, 56); transform-origin: 292.97px 313.69px; transform: rotate(-80.78deg);" class="animable"></circle></g><path d="M308.06,311.12H295.54V298.6a2.57,2.57,0,1,0-5.14,0v12.52H277.88a2.57,2.57,0,0,0,0,5.14H290.4v12.52a2.57,2.57,0,1,0,5.14,0V316.26h12.52a2.57,2.57,0,0,0,0-5.14Z" style="fill: rgb(255, 255, 255); transform-origin: 292.97px 313.69px;" id="el72aighwy348" class="animable"></path><path d="M364.77,216.76a3.16,3.16,0,0,1,2.28,1.86.42.42,0,0,0,.38.24.35.35,0,0,0,.17,0,.41.41,0,0,0,.2-.55,4,4,0,0,0-2.92-2.33.41.41,0,0,0-.11.82Z" style="fill: rgb(38, 50, 56); transform-origin: 366.126px 217.423px;" id="eljoz5skfts99" class="animable"></path></g><defs>     <filter id="active" height="200%">         <feMorphology in="SourceAlpha" result="DILATED" operator="dilate" radius="2"></feMorphology>                <feFlood flood-color="#32DFEC" flood-opacity="1" result="PINK"></feFlood>        <feComposite in="PINK" in2="DILATED" operator="in" result="OUTLINE"></feComposite>        <feMerge>            <feMergeNode in="OUTLINE"></feMergeNode>            <feMergeNode in="SourceGraphic"></feMergeNode>        </feMerge>    </filter>    <filter id="hover" height="200%">        <feMorphology in="SourceAlpha" result="DILATED" operator="dilate" radius="2"></feMorphology>                <feFlood flood-color="#ff0000" flood-opacity="0.5" result="PINK"></feFlood>        <feComposite in="PINK" in2="DILATED" operator="in" result="OUTLINE"></feComposite>        <feMerge>            <feMergeNode in="OUTLINE"></feMergeNode>            <feMergeNode in="SourceGraphic"></feMergeNode>        </feMerge>            <feColorMatrix type="matrix" values="0   0   0   0   0                0   1   0   0   0                0   0   0   0   0                0   0   0   1   0 "></feColorMatrix>    </filter></defs></svg>