<svg xmlns="http://www.w3.org/2000/svg" viewBox="0 0 500 500"><g id="freepik--background-complete--inject-15"><rect y="382.4" width="500" height="0.25" style="fill:#ebebeb"></rect><rect x="52.46" y="389.21" width="37.04" height="0.25" style="fill:#ebebeb"></rect><rect x="169" y="394.62" width="71" height="0.25" style="fill:#ebebeb"></rect><rect x="94.92" y="389.33" width="50.75" height="0.25" style="fill:#ebebeb"></rect><rect x="406.78" y="396.81" width="48.67" height="0.25" style="fill:#ebebeb"></rect><rect x="370.36" y="396.81" width="31.97" height="0.25" style="fill:#ebebeb"></rect><rect x="277.21" y="392.59" width="62.01" height="0.25" style="fill:#ebebeb"></rect><path d="M237,337.8H43.91a5.71,5.71,0,0,1-5.7-5.71V60.66A5.71,5.71,0,0,1,43.91,55H237a5.71,5.71,0,0,1,5.71,5.71V332.09A5.71,5.71,0,0,1,237,337.8ZM43.91,55.2a5.46,5.46,0,0,0-5.45,5.46V332.09a5.46,5.46,0,0,0,5.45,5.46H237a5.47,5.47,0,0,0,5.46-5.46V60.66A5.47,5.47,0,0,0,237,55.2Z" style="fill:#ebebeb"></path><path d="M453.31,337.8H260.21a5.72,5.72,0,0,1-5.71-5.71V60.66A5.72,5.72,0,0,1,260.21,55h193.1A5.71,5.71,0,0,1,459,60.66V332.09A5.71,5.71,0,0,1,453.31,337.8ZM260.21,55.2a5.47,5.47,0,0,0-5.46,5.46V332.09a5.47,5.47,0,0,0,5.46,5.46h193.1a5.47,5.47,0,0,0,5.46-5.46V60.66a5.47,5.47,0,0,0-5.46-5.46Z" style="fill:#ebebeb"></path><rect x="117.39" y="68.24" width="291.89" height="161.54" transform="translate(526.68 298.02) rotate(180)" style="fill:#ebebeb"></rect><rect x="113.95" y="68.24" width="3.44" height="161.54" style="fill:#e0e0e0"></rect><rect x="127.9" y="78.75" width="270.88" height="140.52" transform="translate(526.68 298.02) rotate(180)" style="fill:#fff"></rect><polygon points="320.5 219.27 335.73 219.27 358.73 78.75 343.51 78.75 320.5 219.27" style="fill:#f5f5f5"></polygon><polygon points="269.99 219.27 306.15 219.27 329.15 78.75 292.99 78.75 269.99 219.27" style="fill:#f5f5f5"></polygon><polygon points="165.47 219.27 180.7 219.27 203.7 78.75 188.48 78.75 165.47 219.27" style="fill:#f5f5f5"></polygon><rect x="193.78" y="265.11" width="44" height="109.54" style="fill:#f0f0f0"></rect><rect x="202.23" y="374.65" width="227.64" height="7.75" style="fill:#f0f0f0"></rect><rect x="237.78" y="265.11" width="200.54" height="109.54" transform="translate(676.1 639.77) rotate(180)" style="fill:#f5f5f5"></rect><rect x="237.01" y="272.53" width="201.31" height="40.09" transform="translate(675.33 585.15) rotate(180)" style="fill:#f0f0f0"></rect><rect x="237.01" y="319.93" width="201.31" height="40.09" transform="translate(675.33 679.96) rotate(180)" style="fill:#f0f0f0"></rect><rect x="230.17" y="272.53" width="7.61" height="40.09" style="fill:#e6e6e6"></rect><rect x="230.17" y="319.93" width="7.61" height="40.09" style="fill:#e6e6e6"></rect><rect x="237.78" y="258.37" width="206.4" height="6.74" style="fill:#f0f0f0"></rect><rect x="187.63" y="258.37" width="50.15" height="6.74" transform="translate(425.41 523.49) rotate(180)" style="fill:#e6e6e6"></rect><path d="M122.09,251.34h27.25a21.66,21.66,0,0,1,20.74,16.54l7.2,30.06,14.79,0h.05a14.69,14.69,0,0,1,14.43,11.93l2,10.3a7.61,7.61,0,0,1,6.25,5.71h-73.1a21.64,21.64,0,0,1-20.73-16.52L110.6,266.15A11.77,11.77,0,0,1,122.09,251.34Zm71.58,68.71h10.94l-1.84-9.49a10.85,10.85,0,0,0-10.65-8.82h0l-13.88.05,1.76,7.32A14.32,14.32,0,0,0,193.67,320.05Z" style="fill:#e6e6e6"></path><polygon points="143.5 325.84 140.38 325.84 128.09 382.4 131.21 382.4 143.5 325.84" style="fill:#e0e0e0"></polygon><polygon points="155.22 325.84 152.09 325.84 139.81 382.4 142.93 382.4 155.22 325.84" style="fill:#e0e0e0"></polygon><polygon points="201.2 325.84 204.32 325.84 216.61 382.4 213.48 382.4 201.2 325.84" style="fill:#e0e0e0"></polygon><polygon points="189.48 325.84 192.6 325.84 204.89 382.4 201.77 382.4 189.48 325.84" style="fill:#e0e0e0"></polygon><rect x="65.58" y="216.78" width="5.09" height="165.62" transform="translate(136.25 599.18) rotate(180)" style="fill:#f0f0f0"></rect><path d="M64.52,381.24l-.13-.7a4.11,4.11,0,0,0,2.4-2.11c1.32-2.34,2.13-7.33-1.55-17.8-5.67-16.13-2.29-29.14,4.45-55.07,1.18-4.51,2.51-9.63,3.89-15.16,5.18-20.71.39-33.56-3.46-43.89-3-8-5.35-14.35-2.33-21.68l.67.28c-2.92,7.07-.6,13.28,2.33,21.15,3.89,10.42,8.72,23.38,3.49,44.32-1.38,5.53-2.71,10.65-3.89,15.17-6.7,25.78-10.07,38.72-4.47,54.64,3.78,10.76,2.89,16,1.48,18.43A4.7,4.7,0,0,1,64.52,381.24Z" style="fill:#f0f0f0"></path><polygon points="58.91 382.4 77.33 382.4 72.21 379.38 64.03 379.38 58.91 382.4" style="fill:#f0f0f0"></polygon><polygon points="45.02 237.87 91.23 237.87 86.14 176.63 50.1 176.63 45.02 237.87" style="fill:#f5f5f5"></polygon><polygon points="372.48 223.84 414.78 223.84 409.21 258.37 378.05 258.37 372.48 223.84" style="fill:#f0f0f0"></polygon><path d="M389.45,240.2c11.52,1.38,36.57.2,39.5-19.64s-54.19-23.27-64.49-22.62c-13.13.83-23.76,10.65-23.76,10.65S377.94,238.82,389.45,240.2Z" style="fill:#e6e6e6"></path><path d="M406.55,237.64c-8.18.81-22.09-5-16.59-21s16.77-17.46,24.22-18.79c9.49-1.7,28.47,5.51,28.47,5.51S414.73,236.83,406.55,237.64Z" style="fill:#e6e6e6"></path><path d="M385.14,211.3c10.31,4.35,18.95,5.83,14.07-7.73s-10.82-20.07-20.5-22.82c-12.33-3.52-27,4-27,4S374.84,207,385.14,211.3Z" style="fill:#e6e6e6"></path><path d="M399.13,208.77c-7.87,2.17-14.07,1.71-8.2-11.35s9.78-14.7,16.51-17.2c12.44-4.63,22.86,3.68,22.86,3.68S407,206.61,399.13,208.77Z" style="fill:#e6e6e6"></path><path d="M382,188.83c8.55,7,16.42,11.37,16.07.55s-6.4-20.52-15.6-24.89c-6.33-3-20.33-1.65-20.33-1.65S373.45,181.87,382,188.83Z" style="fill:#e6e6e6"></path><path d="M387.07,175.61c2,10.85,5.1,19.32,11.86,10.86s7.34-16.39,4.59-26.19C400,147.78,388.85,143,388.85,143S385.09,164.77,387.07,175.61Z" style="fill:#e6e6e6"></path><path d="M404.05,184.84c-5.6,4.14-10.45,6.33-8.69-2.46s4.89-11.17,10.24-14.27a20.88,20.88,0,0,1,14.28-2S409.64,180.69,404.05,184.84Z" style="fill:#e6e6e6"></path></g><g id="freepik--Shadow--inject-15"><ellipse id="freepik--path--inject-15" cx="250" cy="416.24" rx="193.89" ry="11.32" style="fill:#f5f5f5"></ellipse></g><g id="freepik--Character--inject-15"><path d="M256.56,150.17c.69.86,1.55,1.88,2.34,2.82s1.65,1.89,2.49,2.82c1.69,1.85,3.4,3.67,5.17,5.36a64.09,64.09,0,0,0,5.38,4.63,19.05,19.05,0,0,0,5.06,2.91l.25.09c.07,0,0,0,.05,0l.05,0s.11,0,.28,0a4.33,4.33,0,0,0,1.66-.78,21.51,21.51,0,0,0,4.39-4.51,53.73,53.73,0,0,0,4.06-6.06c.63-1.08,1.27-2.16,1.86-3.27s1.19-2.28,1.71-3.3l.1-.2a4.31,4.31,0,0,1,8,3.21,69.59,69.59,0,0,1-6.89,15.65,31.88,31.88,0,0,1-6.12,7.39,16.29,16.29,0,0,1-5.25,3.08,12.37,12.37,0,0,1-3.63.65,11.42,11.42,0,0,1-1.94-.1c-.31,0-.68-.1-.93-.16l-.71-.16a30.18,30.18,0,0,1-9.09-4.24,58.85,58.85,0,0,1-7-5.38c-2.15-1.89-4.18-3.84-6.12-5.87-1-1-1.92-2-2.85-3.08s-1.81-2.07-2.78-3.28a6.68,6.68,0,0,1,10.41-8.38h0Z" style="fill:#263238"></path><path d="M295.62,153.37l6.62.93-1.95-7.09s-6.87-.91-7,2.67l.33,1.57A2.42,2.42,0,0,0,295.62,153.37Z" style="fill:#ce7a63"></path><polygon points="308.2 151.26 308.2 144.85 300.29 147.21 302.24 154.3 308.2 151.26" style="fill:#ce7a63"></polygon><polygon points="281.74 405.12 288.99 402.77 284.48 385.68 277.23 388.03 281.74 405.12" style="fill:#ce7a63"></polygon><path d="M289.1,401.81,281,404.45a.54.54,0,0,0-.37.67l1.69,6.57a1.36,1.36,0,0,0,1.69.88c2.82-1,4.12-1.58,7.7-2.74a96.81,96.81,0,0,0,12.66-6c2.65-1.66.95-4.33-.35-3.85-5.83,2.13-10.91,2.82-13.48,1.88A2.14,2.14,0,0,0,289.1,401.81Z" style="fill:#263238"></path><polygon points="277.23 388.04 284.49 385.68 286.8 394.49 279.55 396.85 277.23 388.04" style="opacity:0.2"></polygon><path d="M259.57,215s9.06,63,12.11,84.64c3.34,23.7,17.69,92,17.69,92l-13.45,3.72S255.47,329.2,250,306.16c-5.91-25-17.69-91.16-17.69-91.16Z" style="fill:#263238"></path><path d="M245,282.68c-2.77-13.9-5.77-29.81-8.15-42.71,1.23-3.31,3.1-5,6.74,2.48C249,253.54,247.29,271.84,245,282.68Z" style="fill:#263238"></path><path d="M245,282.68c-2.77-13.9-5.77-29.81-8.15-42.71,1.23-3.31,3.1-5,6.74,2.48C249,253.54,247.29,271.84,245,282.68Z" style="opacity:0.30000000000000004"></path><polygon points="275.58 395.66 289.99 391.69 289.71 385.82 273.49 391.43 275.58 395.66" style="fill:#263238"></polygon><polygon points="224.68 408.46 232.29 408.46 233.28 390.81 225.66 390.81 224.68 408.46" style="fill:#ce7a63"></polygon><path d="M232.69,407.57h-8.56a.54.54,0,0,0-.56.52l-.42,6.78a1.35,1.35,0,0,0,1.34,1.35c3-.05,4.4-.22,8.17-.22,2.31,0,8.82.24,12,.24s3.11-3.16,1.75-3.45c-6.07-1.29-10.27-3.06-12.42-4.75A2.19,2.19,0,0,0,232.69,407.57Z" style="fill:#263238"></path><polygon points="225.66 390.81 233.29 390.81 232.77 399.91 225.15 399.91 225.66 390.81" style="opacity:0.2"></polygon><path d="M244.68,214.61s-.55,58.61-1.79,80.43C241.54,318.93,236,397.71,236,397.71h-14s-.86-76.85-1.7-100.5c-.91-25.68-2-82.6-2-82.6Z" style="fill:#263238"></path><polygon points="221.52 397.71 236.6 397.71 237.44 392.42 220.79 393.25 221.52 397.71" style="fill:#263238"></polygon><path d="M259.62,215.41l-41.24-.8c-.29-3.64,1-15.09.36-30.17a193.37,193.37,0,0,0-4.05-33.24v0a2.39,2.39,0,0,1,1.94-2.88c.72-.13,1.58-.26,2.53-.4,2.45-.36,5.54-.73,8.56-.88A153.85,153.85,0,0,1,245,147a50,50,0,0,1,5.81.81,15,15,0,0,1,3.28,1,3,3,0,0,1,1.67,1.5C257.67,155.53,259.66,177.51,259.62,215.41Z" style="fill:#f0f0f0"></path><path d="M222.9,159.06c-1.4,2.34-2.89,4.9-4.25,7.39s-2.74,5-4,7.59-2.45,5.11-3.54,7.67l-.79,1.91-.71,1.91c-.25.64-.43,1.27-.63,1.9l-.31.94a4.93,4.93,0,0,0-.13.52,27.12,27.12,0,0,0-.33,3.49c0,1.33,0,2.72,0,4.12.06,2.82.25,5.71.45,8.6s.45,5.82.73,8.74.56,5.86.85,8.74v.07a4.31,4.31,0,0,1-8.48,1.45c-1.45-5.9-2.62-11.76-3.61-17.76-.49-3-.89-6-1.21-9.13-.15-1.56-.28-3.14-.34-4.78a31.62,31.62,0,0,1,.18-5.39c.05-.47.2-1.17.31-1.66l.3-1.2c.21-.8.4-1.61.64-2.37l.71-2.31.77-2.26q1.59-4.45,3.5-8.69c1.27-2.82,2.59-5.59,4-8.32s2.84-5.37,4.49-8.12A6.68,6.68,0,0,1,222.93,159Z" style="fill:#263238"></path><path d="M244.21,147c-5-1.19-5.92-4.3-5.58-7.73a19.52,19.52,0,0,1,.4-2.55l-6.31-5.24-4.64-3.84c1.29,5.58,2.74,15.74-1,19.47a21.2,21.2,0,0,0,12.72,3.81C247.19,150.59,244.21,147,244.21,147Z" style="fill:#ce7a63"></path><polygon points="239.48 150.88 238.8 149.2 234.6 151.71 239.48 150.88" style="fill:#e0e0e0"></polygon><polygon points="239.48 150.88 239.82 149.2 244.02 151.71 239.48 150.88" style="fill:#e0e0e0"></polygon><path d="M227.37,146.05a45.47,45.47,0,0,0,11.43,3.15,20,20,0,0,0-3.15,5.31c-1.83-.49-9.85-5.39-11.62-7.75Z" style="fill:#fff"></path><path d="M243,146.23a7.85,7.85,0,0,1-3.18,3,18.88,18.88,0,0,1,3.91,4.67,12.09,12.09,0,0,0,1.74-7.11Z" style="fill:#fff"></path><path d="M227,145.39s-5.55,1.2-10.25,2.64a7.53,7.53,0,0,0-5.29,7.9c1,10.14,5.6,28.54,5.69,36.32.11,9.71,2.15,28,2.15,28l20.79,4.29S242.63,152,227,145.39Z" style="opacity:0.30000000000000004"></path><path d="M243.1,146.05s4.62.49,8.88,1.39a8.23,8.23,0,0,1,6.51,7.46c1.14,16.79.6,33.68,1.14,42.79.56,9.69-.18,22.25-.18,22.25l-8.13,2.35S249.27,158.75,243.1,146.05Z" style="opacity:0.30000000000000004"></path><path d="M227,145.39s-5.55,1.2-10.25,2.64a7.53,7.53,0,0,0-5.29,7.9c1,10.14,4,28.65,4.07,36.43.12,9.71-.95,26.66-.95,26.66l23.61,2.27S242.63,152,227,145.39Z" style="fill:#263238"></path><path d="M243.1,146.05s4.62.49,8.88,1.39a8.23,8.23,0,0,1,6.51,7.46c1.14,16.79,1.83,33.61,2.36,42.72.57,9.69.62,21.74.62,21.74l-9.6.92S249.27,158.75,243.1,146.05Z" style="fill:#263238"></path><path d="M239,136.67a19.52,19.52,0,0,0-.4,2.55c-2.36-.47-5.5-3-5.83-5.38a11.3,11.3,0,0,1-.08-2.41Z" style="opacity:0.2"></path><path d="M244.73,113.74c.53,3.84-1,7.23-3.5,7.57s-4.88-2.51-5.41-6.35,1-7.24,3.5-7.58S244.2,109.89,244.73,113.74Z" style="fill:#263238"></path><path d="M224.87,122c2.9,7,4.24,11.24,9.15,13.79A9.85,9.85,0,0,0,248.45,126c-.65-6.9-5.29-17.2-13.33-17.88A10,10,0,0,0,224.87,122Z" style="fill:#ce7a63"></path><path d="M225.13,127.41c.42,3.65,5.75,2.28,4.85-4.92a23.36,23.36,0,0,0-2.29-6.12s12.42-5,15-7.56c2.36-2.35,2.53-5.56.75-6.56a4.1,4.1,0,0,1-3.12,2.39s2.53-3.42.86-5.48a6.55,6.55,0,0,1-5.75,4.23c-4.37.51-9.4-1.39-12.65,3.42-2.59,3.83-6.46,2.4-4.86,7.75-5,3.28-1.31,6.5.86,7.72S224.9,125.4,225.13,127.41Z" style="fill:#263238"></path><path d="M218.6,114.5s-3.37-.58-2.52-4.63C212.72,113.67,215.26,115.41,218.6,114.5Z" style="fill:#263238"></path><path d="M224.56,129.89a8.19,8.19,0,0,0,5.13,1.92c2.37,0,2.5-2.25,1-4.1-1.39-1.66-4.29-3.65-6.24-2.74S222.75,128.37,224.56,129.89Z" style="fill:#ce7a63"></path><path d="M236.51,120.62c.2.59.67,1,1.06.84s.53-.68.33-1.26-.68-1-1.06-.84S236.31,120,236.51,120.62Z" style="fill:#263238"></path><path d="M243.15,118.59c.2.58.67,1,1.06.84s.53-.68.33-1.26-.67-1-1.06-.84S243,118,243.15,118.59Z" style="fill:#263238"></path><path d="M241.14,119.53a23,23,0,0,0,4.52,4.11A3.49,3.49,0,0,1,243,125Z" style="fill:#ba4d3c"></path><path d="M241.17,127.32a5.29,5.29,0,0,1-4.06-.87.18.18,0,0,1,0-.25.19.19,0,0,1,.26,0,5.07,5.07,0,0,0,4.42.64.17.17,0,0,1,.22.12.17.17,0,0,1-.12.22A4.94,4.94,0,0,1,241.17,127.32Z" style="fill:#263238"></path><path d="M233.72,119.13a.37.37,0,0,1-.18,0,.36.36,0,0,1-.22-.46,3.46,3.46,0,0,1,2.33-2.28.35.35,0,0,1,.43.27.35.35,0,0,1-.27.43,2.75,2.75,0,0,0-1.81,1.81A.35.35,0,0,1,233.72,119.13Z" style="fill:#263238"></path><path d="M212.28,250.15a5.12,5.12,0,0,1-.87-.08h0l-13.49-2.47a4.81,4.81,0,0,1-3.85-5.58l1.25-6.81a4.77,4.77,0,0,1,2-3.08,4.72,4.72,0,0,1,3.59-.77l13.49,2.47a4.8,4.8,0,0,1,3.85,5.58L217,246.22A4.79,4.79,0,0,1,212.28,250.15Zm-.5-2.1a2.75,2.75,0,0,0,3.19-2.2l1.25-6.82a2.74,2.74,0,0,0-2.2-3.18l-13.49-2.47a2.74,2.74,0,0,0-3.19,2.2l-1.25,6.81a2.76,2.76,0,0,0,2.2,3.19Z" style="fill:#407BFF"></path><rect x="175.37" y="238.92" width="60.13" height="39.92" rx="5.54" transform="translate(50.03 -32.79) rotate(10.39)" style="fill:#263238"></rect><rect x="175.37" y="238.92" width="60.13" height="39.92" rx="5.54" transform="translate(50.03 -32.79) rotate(10.39)" style="fill:#407BFF;opacity:0.8"></rect><rect x="172.84" y="238.46" width="60.13" height="39.92" rx="5.54" transform="translate(49.91 -32.34) rotate(10.39)" style="fill:#407BFF"></rect><path d="M231.85,243.43l-50.69-9.29a4.31,4.31,0,0,0-5,3.45l-2.78,15.2a4.3,4.3,0,0,0,3.45,5l21.3,3.9-.31,1.68A1.41,1.41,0,0,0,199,265l3.79.69a1.42,1.42,0,0,0,1.65-1.13l.3-1.67,22.82,4.18a4.3,4.3,0,0,0,5-3.45l2.79-15.2A4.32,4.32,0,0,0,231.85,243.43Z" style="fill:#263238;opacity:0.30000000000000004"></path><path d="M225.39,265.18l-50.95-9.34a3.65,3.65,0,0,1-2.88-4.76l4.16-13.7a4.79,4.79,0,0,1,5.31-3.26l51,9.34a3.65,3.65,0,0,1,2.88,4.76l-4.16,13.7A4.81,4.81,0,0,1,225.39,265.18Z" style="fill:#407BFF"></path><path d="M200.28,264.27l-3.83-.7a1.62,1.62,0,0,1-1.27-2.1l1.84-6a2.1,2.1,0,0,1,2.34-1.43l3.83.7a1.6,1.6,0,0,1,1.26,2.1l-1.83,6A2.11,2.11,0,0,1,200.28,264.27Z" style="fill:#fff"></path><path d="M245.23,115.46a.35.35,0,0,1-.32-.1,3.06,3.06,0,0,0-2.49-1,.35.35,0,0,1-.42-.29.37.37,0,0,1,.29-.42h0a3.73,3.73,0,0,1,3.13,1.16.36.36,0,0,1,0,.51A.39.39,0,0,1,245.23,115.46Z" style="fill:#263238"></path><path d="M210.3,224.63l2.28,7.31L203.17,230s-1.45-6.77,2.11-7.23l3.33.43A2,2,0,0,1,210.3,224.63Z" style="fill:#ce7a63"></path><path d="M208.07,237.63l-4.1-.77a2.17,2.17,0,0,1-1.72-2.59l.92-4.26,9.41,1.93-2.15,4.49A2.17,2.17,0,0,1,208.07,237.63Z" style="fill:#ce7a63"></path></g><g id="freepik--Coin--inject-15"><path d="M297.09,68.84h6.53v61.25h-6.53a30.63,30.63,0,0,1,0-61.25Z" style="fill:#407BFF"></path><path d="M297.09,68.84h6.53v61.25h-6.53a30.63,30.63,0,0,1,0-61.25Z" style="opacity:0.1"></path><path d="M303.63,107.47v2.77h-35.2a25.6,25.6,0,0,1-.9-2.77Z" style="fill:#263238;opacity:0.30000000000000004"></path><path d="M273.29,118.72h30.34v11.37h-6.54A30.53,30.53,0,0,1,273.29,118.72Z" style="fill:#263238;opacity:0.30000000000000004"></path><path d="M317.28,130.84l-.41-.94a33.6,33.6,0,0,0,5.29-2.91l.57.85A34.39,34.39,0,0,1,317.28,130.84Z" style="fill:#407BFF"></path><path d="M328.1,123.35l-.73-.72a33,33,0,0,0,9-17.8l1,.17A33.93,33.93,0,0,1,328.1,123.35Z" style="fill:#407BFF"></path><circle cx="303.62" cy="99.46" r="30.62" transform="translate(76.38 324.05) rotate(-62.8)" style="fill:#407BFF"></circle><path d="M305.52,109.88,303,102a11,11,0,0,1-6.42-1.45A8.42,8.42,0,0,1,293.2,96a7.67,7.67,0,0,1,.28-5.8,8.22,8.22,0,0,1,4.4-4.08l-.61-1.9L300,83.3l.61,1.9a8.47,8.47,0,0,1,5.4.51,8.22,8.22,0,0,1,3.7,3.78l-4.55,2.14a4,4,0,0,0-3.22-2.28l2.36,7.34c3.26-.15,5.65.25,7.15,1.19a7.87,7.87,0,0,1,3.24,4.47,8.74,8.74,0,0,1-.22,6.38,9.43,9.43,0,0,1-4.8,4.69l.61,1.9-2.72.88-.58-1.81a9.15,9.15,0,0,1-6.06-.73,10.49,10.49,0,0,1-4.43-4.89l4.74-2.1a6.54,6.54,0,0,0,1.95,2.23A5.31,5.31,0,0,0,305.52,109.88Zm-6.33-19.71A3.66,3.66,0,0,0,297.84,92a3.39,3.39,0,0,0,0,2.2A3.28,3.28,0,0,0,299,95.87a4.33,4.33,0,0,0,2.27.79Zm9.14,19.1a4,4,0,0,0,1.87-2,3.83,3.83,0,0,0,.1-2.73,3.5,3.5,0,0,0-1.44-1.93A4.94,4.94,0,0,0,306,102Z" style="fill:#fff"></path><path d="M280.78,89.44a24.95,24.95,0,0,1,44.3,22.75,24.95,24.95,0,1,0-44.3-22.75Z" style="opacity:0.1"></path><path d="M333.25,72.28a2.89,2.89,0,0,0-2.07,2.08.54.54,0,0,1-1,0,2.89,2.89,0,0,0-2.08-2.08.54.54,0,0,1,0-1,2.89,2.89,0,0,0,2.08-2.07.53.53,0,0,1,1,0,2.89,2.89,0,0,0,2.07,2.07A.53.53,0,0,1,333.25,72.28Z" style="fill:#407BFF;opacity:0.30000000000000004"></path><path d="M281.13,132.59a2.18,2.18,0,0,0-1.58,1.58.4.4,0,0,1-.76,0,2.19,2.19,0,0,0-1.57-1.58.4.4,0,0,1,0-.76,2.19,2.19,0,0,0,1.57-1.57.4.4,0,0,1,.76,0,2.19,2.19,0,0,0,1.58,1.57A.4.4,0,0,1,281.13,132.59Z" style="fill:#407BFF;opacity:0.2"></path><path d="M276.47,68.51a3.87,3.87,0,0,0-2.79,2.79.72.72,0,0,1-1.36,0,3.87,3.87,0,0,0-2.78-2.79.71.71,0,0,1,0-1.35,3.89,3.89,0,0,0,2.78-2.79.72.72,0,0,1,1.36,0,3.88,3.88,0,0,0,2.79,2.79A.71.71,0,0,1,276.47,68.51Z" style="fill:#407BFF;opacity:0.4"></path></g></svg>