<?xml version="1.0" encoding="utf-8"?>
<!-- Generator: Adobe Illustrator 24.3.0, SVG Export Plug-In . SVG Version: 6.00 Build 0)  -->
<svg version="1.1" id="Capa_1" xmlns="http://www.w3.org/2000/svg" xmlns:xlink="http://www.w3.org/1999/xlink" x="0px" y="0px"
	 viewBox="0 0 512 512" style="enable-background:new 0 0 512 512;" xml:space="preserve">
<style type="text/css">
	.st0{fill:#7C8186;}
</style>
<g>
	<g>
		<path class="st0" d="M225.5,0C101.2,0,0,101.2,0,225.5c0,124.3,101.2,225.5,225.5,225.5c124.3,0,225.5-101.1,225.5-225.5
			C450.9,101.2,349.8,0,225.5,0z M225.5,409.3c-101.4,0-183.8-82.5-183.8-183.8S124.1,41.6,225.5,41.6s183.8,82.5,183.8,183.8
			S326.8,409.3,225.5,409.3z"/>
	</g>
</g>
<g>
	<g>
		<path class="st0" d="M505.9,476.5L386.6,357.1c-8.1-8.1-21.3-8.1-29.4,0c-8.1,8.1-8.1,21.3,0,29.4l119.3,119.3
			c4.1,4.1,9.4,6.1,14.7,6.1c5.3,0,10.6-2,14.7-6.1C514,497.8,514,484.6,505.9,476.5z"/>
	</g>
</g>
</svg>
